/* XPM */
static char *exit[] = {
/* columns rows colors chars-per-pixel */
"50 50 170 2 ",
"   c #2F2617",
".  c #352A1C",
"X  c #3A2D1E",
"o  c #352B24",
"O  c #3C2D24",
"+  c #342F29",
"@  c #3E3122",
"#  c #353334",
"$  c #3F3D33",
"%  c #46311E",
"&  c #49331D",
"*  c #5D3B1F",
"=  c #402E24",
"-  c #403020",
";  c #4E3425",
":  c #47342B",
">  c #4B372B",
",  c #4E382C",
"<  c #513625",
"1  c #563926",
"2  c #5B3B25",
"3  c #503728",
"4  c #563D2E",
"5  c #593D2A",
"6  c #4E3B32",
"7  c #523E32",
"8  c #583F30",
"9  c #633E24",
"0  c #5E412E",
"q  c #43463D",
"w  c #43483E",
"e  c #544637",
"r  c #5C4331",
"t  c #564838",
"y  c #594B3C",
"u  c #654026",
"i  c #6B4327",
"p  c #65422B",
"a  c #6C4328",
"s  c #714626",
"d  c #734926",
"f  c #794826",
"g  c #724628",
"h  c #754828",
"j  c #7A4C28",
"k  c #7B5028",
"l  c #644530",
"z  c #61533F",
"x  c #434940",
"c  c #594D41",
"v  c #475047",
"b  c #475048",
"n  c #48514A",
"m  c #5F5545",
"M  c #5E5849",
"N  c #525B57",
"B  c #535C58",
"V  c #615340",
"C  c #58605D",
"Z  c #5D6662",
"A  c #5F6865",
"S  c #606A67",
"D  c #616B68",
"F  c #814D28",
"G  c #884C28",
"H  c #688386",
"J  c #64828C",
"K  c #69838B",
"L  c #6E898E",
"P  c #698795",
"I  c #6F8994",
"U  c #7E9997",
"Y  c #7F9998",
"T  c #81979F",
"R  c #829B9C",
"E  c #849BA4",
"W  c #899EA4",
"Q  c #849CA9",
"!  c #899FAA",
"~  c #89A0A5",
"^  c #8CA2AD",
"/  c #92A8AD",
"(  c #8CA3B3",
")  c #8CA4B9",
"_  c #97A5B3",
"`  c #98A7B4",
"'  c #95ABB2",
"]  c #99A8B6",
"[  c #90A7BC",
"{  c #91A8BF",
"}  c #9BABBB",
"|  c #9CB3BB",
" . c #A0B1BD",
".. c #95ADC5",
"X. c #9BADC2",
"o. c #96AEC9",
"O. c #9CB4C3",
"+. c #97B0CB",
"@. c #9EB7CB",
"#. c #9FB8CF",
"$. c #9FB9D4",
"%. c #A0AFC2",
"&. c #A3B4C4",
"*. c #A7B8C5",
"=. c #A8B9C6",
"-. c #A5B6C9",
";. c #A4B6CC",
":. c #A4B7CD",
">. c #A4B7CE",
",. c #A3B6CB",
"<. c #A7B8CB",
"1. c #A7B8CA",
"2. c #A6B9CE",
"3. c #A8BAC9",
"4. c #A8BACB",
"5. c #A8B9C8",
"6. c #AABCCA",
"7. c #ABBDCB",
"8. c #AABCCB",
"9. c #A8B9CC",
"0. c #A8BACE",
"q. c #AABCCC",
"w. c #ABBDCC",
"e. c #AABDCD",
"r. c #AABDCC",
"t. c #AABCCE",
"y. c #ABBECE",
"u. c #A9BACC",
"i. c #A7B7D1",
"p. c #A3B7D0",
"a. c #A5B8D0",
"s. c #A7B8D0",
"d. c #A5B8D3",
"f. c #A7B8D2",
"g. c #A5B9D4",
"h. c #A6BAD5",
"j. c #A6BAD6",
"k. c #A5B9D4",
"l. c #A8B9D1",
"z. c #AABDD0",
"x. c #AABED1",
"c. c #AABED0",
"v. c #A9BCD3",
"b. c #AABDD3",
"n. c #AABED2",
"m. c #ABBED3",
"M. c #AABED3",
"N. c #A9BAD5",
"B. c #AABDD4",
"V. c #ABBFD5",
"C. c #ABBFD4",
"Z. c #ABBFD6",
"A. c #AABDD4",
"S. c #A6BAD9",
"D. c #AABEDA",
"F. c #ABC0D7",
"G. c #ABC0D8",
"H. c #ABC0D9",
"J. c #ACC0DA",
"K. c #ACC0DB",
"L. c #ACC1DB",
"P. c #ACC1DC",
"I. c #ACC1DE",
"U. c #ACC1DF",
"Y. c #ABC0DD",
"T. c #ACC2E1",
"R. c #ACC2E3",
"E. c #ADC3E7",
"W. c #ADC3E4",
"Q. c #ACC1E2",
/* pixels */
". . . . . . . . . . . . . . . . . . . . . . . . . . . . . . . . . . . . . . . . . . . . . . . . . . ",
"4 4 8 8 8 8 4 4 8 8 8 8 4 4 8 8 4 4 4 4 4 4 4 4 X 4 4 4 4 4 4 4 7 7 7 7 4 4 4 4 4 4 4 4 4 4 4 4 4 4 ",
"j s u 9 9 9 9 9 9 9 9 9 9 9 9 9 9 9 9 9 9 9 u a & d j j j j j j j j j j j j j j j j j j j j j j j j ",
"j 9 $ x w w w w w w w w w w w w w w w w w w $ 2 & d a 2 * 2 * * 2 2 2 * * * * * * 2 * * * * * 2 s j ",
"j a A Y E E E E E Q Q E Q E E E E E R R T Y A p & d u w n b b b n b v v x x x b b b b b b b n w u j ",
"j a Z ..&.:.:.:.a.:.a.a.:.a.:.:.a.&.&.:.&.X.Z p & d a A R E W ~ ~ ~ ~ ~ ~ ) ~ ! ! ~ E E W E R S a j ",
"k a A | &.&.&.&.5.&.&.&.&.&.&.&.5.&.&.&.&.| S p & d a Z O.&.2.:.:.a.2.a.a.:.a.:.:.a.&.:.:.&...Z a j ",
"k a S $.8.m.m.8.L.8.m.L.8.Z.m.8.L.8.m.m.8.$.S p & d a S | &.&.&.&.5.&.&.&.&.&.&.&.5.&.&.&.&.| S a k ",
"j g S | &.5.:.:.8.:.2.8.:.8.&.&.=.&.&.=.&.| S p & d p S $.8.L.m.8.L.8.m.L.8.L.m.8.L.8.m.L.8.$.S a k ",
"j g S $.8.L.L.m.R.m.L.R.m.L.m.m.L.8.m.L.8.$.S p & d p S | &.5.&.&.=.&.&.=.:.8.2.:.8.:.&.=.&.| S g j ",
"j a S | :.8.8.a.m.m.m.m.i.8.2.:.=.&.&.=.&.| S p & d a S $.8.L.F.8.L.m.Z.L.m.R.L.F.R.m.L.L.8.$.S g j ",
"j a D $.8.L.L.L.R.L.R.R.Z.R.L.m.L.8.m.L.8.$.S a & d p S | &.=.5.&.8.:.2.8.a.m.m.m.m.m.8.8.:.| S a j ",
"F a D O.:.m.m.m.Z.Z.Z.Z.Z.Z.m.a.8.:.8.8.&.| S a & d a S $.8.m.m.8.L.m.L.R.Z.R.R.L.R.L.L.L.8.$.D a j ",
"j a D #.8.L.Z.Z.R.L.R.R.Z.R.Z.m.L.8.m.m.8.@.S p & f a S O.*.8.8.:.m.m.m.Z.Z.Z.Z.Z.L.Z.m.m.2.O.D a F ",
"j a D @.8.m.Z.Z.R.Z.U.R.Z.Z.Z.m.m.8.8.8.8.O.S a & d p S @.8.m.8.8.Z.m.Z.L.Z.R.R.Z.R.Z.Z.Z.8.@.D a j ",
"j a A O.&.2.a.a.Z.a.Z.Z.a.S.a.:.a.&.:.:.&.O.A a & f a S @.8.m.8.8.Z.m.Z.L.Z.R.R.Z.R.Z.Z.Z.8.#.D a F ",
"F a Z X.&.:.:.:.S.a.a.S.:.a.i.:.i.&.&.:. .X.Z a & d a Z } &.&.&.&.2.:.a.a.a.S.a.a.a.i.:.:.&.| A a f ",
"G a Z ' } &.&.&.&.&.&.:.&.:.&.&.&.} }  .} ' Z g & f a Z X.&.:.:.&.a.:.a.S.i.S.a.a.S.:.i.i.&.X.Z a F ",
"j a Z o.&.:.:.&.a.:.:.a.&.a.:.&.a.&.:.:.&.o.C p & f g Z ' } } } } &.%.&.&.%.&.&.&.&...&. .} ' Z a G ",
"j a Z ' } } } }  .} }  .}  .} }  .} } } } / C p & s p C o.&.:.:.&.a.&.:.a.&.a.:.:.a.&.:.i.&.+.Z a j ",
"h a Z o.&.:.:.&.i.&.:.i.&.i.:.&.i.&.:.:.&.X.N p & a p C / } } } }  .} }  .}  .} }  .} } } } ' Z a j ",
"h a Z ~ _ ` ` _ ` _ _ ` _ ` _ _ ` _ _ ` _ W N p & a p N X. .:.:.&.i.&.&.:. .:.&.&.i.&.:.:. .o.Z a h ",
"j g Z { ` ..} ` ..} } ..` ..} } ..` } ..` ) N p & s p N ! _ ` ` _ ` _ ` ` _ ` ` _ ` _ _ ` _ ~ Z a j ",
"2 2 Z ) _ ` ` _ } _ _ ` _ ` ` _ } _ ` ` ` ~ N p & s p N ) ` } } ` ..} } ..` ..} } ..` } } ` { Z g j ",
"  O C ) ` } } ` } ` } } ` } } ` } ` } } ` ) N p & s p N ~ ` } } _ } _ ` } _ } ` ` } ` ` } ` ) Z 2 2 ",
"o O N ) ` } } ` ..} } } ` } } } ..` } } } ) N p & d a N ~ ` } } _ } _ ` } _ } } ` } ` ` } ` ) C O   ",
"# O N P L I I L I L I I L I I L I L I I L P N p & s p N ) } ..} } ..} } ..` ..} } ..` } ..` ) N O + ",
"o O c M M M M M M M M M M M M M M M M M M M c p & s p N J H K K H K H K K H K K H K H K K H J N O # ",
". @ 7 7 7 7 7 7 7 7 7 7 7 7 7 7 7 7 7 7 7 7 7 p & s p y V m m m m m m m m m m m m m m m m m V y O . ",
"s 9 o O O O O O O O O O O O O O O O O O O O o 2 & s p 6 7 7 7 7 7 7 7 7 7 7 7 7 7 7 7 7 7 7 7 7 - . ",
"h 2 ; 9 p a a p p p a a u u p a a p a a a a ; 1 & s 2 o O O O O O O O O O O O O O O O O O O O o 9 s ",
"h 2 ; g g h g g h g h h g h g h h g g h h h < 1 & s 2 ; p a a a a a a a a a a a a a a a a a a ; 2 h ",
"h 2 ; g g g g g g g h g g g g g g g g g g g < 1 & s 2 ; g g h g g h g h h g h g h h g g g h h < 2 h ",
"g 4 ; g g g g h h g g g a a a a g g g h g h < 3 & a 1 ; g g g g g g g h g g g g g g g g g g g < 1 g ",
"a 4 ; g g a a g g g a a a a a a a a a a g g < , & a 3 ; g g g g h h g g a a a a a g g g g g h < 2 a ",
"a 4 ; g h h g g g g g g a a g g g a g g h g < , & p , ; g g g a g g g a a a a a a a a a a g g < 4 a ",
"a 4 ; a a g g g g g g g g g g g g g g g g g < , & p , ; g g h g g g g g g a a g g g a g g h h < 4 a ",
"p 4 ; a g h g h g a a g g g a g h g g h g h < , - p , ; a a g g g h h g g g g g g g g g g g g < 4 a ",
"p 4 < a a g g a a a a a a a a a a a a a g g < : - p , ; a g h g h g a a g g g a g h g h h g h < 4 p ",
"p 4 ; a g h h g g a a a a a a a a a a a a a < : - p , ; a a a g a a a a a a a a a a a a a g g < 4 p ",
"l 4 < h g j g g g g h h h h g h a a g g g g < , - p , < a g h h g g g a a a a a a a a a a a a < 4 p ",
"l , < g g g g g g g a a a a a a a a a a a g < , - p , < h h j g g g g h h h h g h a a g g g g < , l ",
"p , < a a a a a a a a a a a a a g a a a a a < , - p , < g g g g g g g a a a a a a a a a a a g < , l ",
"l , < g g g a a a a a a a a a a g a a g h g ; , - p , < a a a a a a a a a a a a a g a a g g a < , p ",
"l , < g g g g g g g a a a g a g a a a a a a ; , - p , ; g g g a a a a a a a a a a g a a g g g ; 4 l ",
"l , ; u u a u a a a a a a a a a 9 9 9 9 9 9 ; , @ 0 , ; g g h g g g g g g g g a g a a a a a a ; 4 l ",
"r , O O O O = O O = O O O O = = O O O O = = O : O 0 , ; 9 9 u 9 u u u u u 9 u 9 u 9 9 9 9 9 9 ; 4 l ",
"r 4 , , , , , , , , , , , , , , , , , , , , , 4 X 4 , o O O O O O O O O O O O O O O O O O O O O , r ",
"X X X X X X X X X X X X X X X X X X X X X X X X X 4 4 , , , , , , , , , , , , , , , , , , , , , 4 r ",
"e e e y t y y V V V V V V V V V V V V V V V V V @ X X X X X X X . . X . X X X X X X . X . . . . X X "
};
