/* XPM */
static char *floor[] = {
/* columns rows colors chars-per-pixel */
"50 50 189 2 ",
"   c None",
".  c #0C4B2A",
"X  c #15522E",
"o  c #125D2D",
"O  c #1D5B2C",
"+  c #135830",
"@  c #295733",
"#  c #1B622F",
"$  c #0D6235",
"%  c #146432",
"&  c #1A6532",
"*  c #166B34",
"=  c #1A6831",
"-  c #156B39",
";  c #1F6F3B",
":  c #1C7237",
">  c #1D7B36",
",  c #177238",
"<  c #1B753B",
"1  c #1E793A",
"2  c #236533",
"3  c #2B6632",
"4  c #236D35",
"5  c #2D6D37",
"6  c #2B6738",
"7  c #226F3D",
"8  c #376535",
"9  c #35663C",
"0  c #237335",
"q  c #217D36",
"w  c #23753D",
"e  c #29753D",
"r  c #247C3D",
"t  c #2A7D3E",
"y  c #3D7034",
"u  c #36763B",
"i  c #38743F",
"p  c #327D3D",
"a  c #3C7F3E",
"s  c #427C3D",
"d  c #1F7541",
"f  c #1D7841",
"g  c #237541",
"h  c #2E7443",
"j  c #267A41",
"k  c #2C7C42",
"l  c #2B7548",
"z  c #347544",
"x  c #337C43",
"c  c #3B7D44",
"v  c #357748",
"b  c #377D48",
"n  c #3C7C49",
"m  c #457B47",
"M  c #477E49",
"N  c #258137",
"B  c #298536",
"V  c #2E8A34",
"C  c #27803E",
"Z  c #2B823E",
"A  c #2E883A",
"S  c #328A35",
"D  c #32843E",
"F  c #39833F",
"G  c #35893D",
"H  c #3B8C3E",
"J  c #408C3D",
"K  c #44933D",
"L  c #4A973F",
"P  c #2D8341",
"I  c #2A854E",
"U  c #2F8B4C",
"Y  c #338542",
"T  c #3B8443",
"R  c #358A43",
"E  c #3B8C44",
"W  c #35804A",
"Q  c #3D8649",
"!  c #358B4B",
"~  c #3C8D49",
"^  c #3D9145",
"/  c #34904C",
"(  c #3D9148",
")  c #3F994C",
"_  c #428544",
"`  c #4A8544",
"'  c #438D44",
"]  c #4A8C45",
"[  c #448448",
"{  c #4A864A",
"}  c #448C4A",
"|  c #4D8E49",
" . c #568446",
".. c #538C45",
"X. c #568F48",
"o. c #449245",
"O. c #4A9545",
"+. c #4C9946",
"@. c #449549",
"#. c #4B9549",
"$. c #46984A",
"%. c #4E9F4E",
"&. c #4E9E4C",
"*. c #4C9B4B",
"=. c #549143",
"-. c #529446",
";. c #5B9447",
":. c #5B9346",
">. c #539D43",
",. c #579D43",
"<. c #519B47",
"1. c #539846",
"2. c #549B46",
"3. c #579F47",
"4. c #549E47",
"5. c #539B45",
"6. c #589B47",
"7. c #589D46",
"8. c #51944A",
"9. c #5B9449",
"0. c #529B4A",
"q. c #509D48",
"w. c #519F48",
"e. c #539E49",
"r. c #519D4A",
"t. c #539E4A",
"y. c #579F48",
"u. c #579E4A",
"i. c #549F4C",
"p. c #539D4B",
"a. c #5B9D4A",
"s. c #479F55",
"d. c #4E9D50",
"f. c #529C51",
"g. c #659844",
"h. c #6D9C45",
"j. c #659F4E",
"k. c #59A147",
"l. c #5CA246",
"z. c #56A049",
"x. c #56A04A",
"c. c #52A14E",
"v. c #53A14D",
"b. c #56A24F",
"n. c #54A14D",
"m. c #58A24B",
"M. c #5CA44A",
"N. c #5EA54B",
"B. c #5FA24C",
"V. c #5AA54E",
"C. c #5DA64C",
"Z. c #5FA74D",
"A. c #5BA34B",
"S. c #5EA84A",
"D. c #5FA94D",
"F. c #5EA94D",
"G. c #47A053",
"H. c #4CA254",
"J. c #56A150",
"K. c #55A451",
"L. c #56A550",
"P. c #55A351",
"I. c #5AA751",
"U. c #5CA450",
"Y. c #5AA651",
"T. c #5BA852",
"R. c #5CA851",
"E. c #5DAA53",
"W. c #57A559",
"Q. c #56AB5A",
"!. c #5BAC5C",
"~. c #62A447",
"^. c #64A646",
"/. c #67A947",
"(. c #6BAA46",
"). c #62A74A",
"_. c #60A548",
"`. c #60A74C",
"'. c #62A54A",
"]. c #6AA64E",
"[. c #62A94B",
"{. c #62AA4F",
"}. c #63AA4C",
"|. c #6AAC4A",
" X c #72A449",
".X c #6DB14F",
"XX c #65AD50",
"oX c #62AC51",
"OX c #6EB450",
/* pixels */
"                          F o.F   ~.U.~ w     > E t.A * < E t.: 0       E o.                        ",
"                $.O.D   p &.V.^ 2.V.e e A A q S A t.t.r E _.Y & 5 E D   p &.+.      o.E p           ",
"                Y V.$.E &.&.R ^ V.G A ^ 2.e D ] D R &.Y E &.Y o.^ c.}.t.-.F t.&.' &.D.R e           ",
"        D ^ &.E R Y c.P $.P C o.$.t.E r E R _ ' 2.&.o.D A o.E.$.E P &.oX#.;.E U.R #.R r O.H         ",
"        +.t.$.c.#.A &.t.+.E A r +.t.R R P 2.R E t.K._.H o.c.E Y o.2.&.$.&.#.e $.t.O.H E ' O         ",
"        o.V.V._.A k.E.&.^ R R P o.A k Y O.+.&.&.Y r $.P &.$.c R Y $.$.&.$.C O.U.&.o.D $.Y p e       ",
"  r E w D A E _.2.O.P $.P r G 2.}.&.E r E &.K.A A R Y r $.k M c e Y R R c.E o.P &.Y > K V.K.E       ",
"  > A t.R E Y E }.r < Y < r 2.V.( r ] ' &.t.$.$.E +.r P R < w k Y ' X.Y R V.A < Y < r $.&.A ' y     ",
"    e o.u.O.8.e E e , - A &.K.E R R #.r D.k j R O.u.O.Y Y A o.O.V.u.#.-.e E A < , w &.t.P R #.o.O.D ",
"  A Y $.t.2.E R w R q r &.#.Y R o.V.R e t.E c ] 2.P +.O.E E &.O.$.u.V.o.Y k R q < $.t.E ^ V.^ c.o.# ",
"  0 r &.^._ k &.&.#.H e ~ w Y o.E ` p Y 8.t.E Y o.Y Y 2.H r ^ }.V.9.R r &.&.#.H r E w e H ` R c.R   ",
"  x e o.t.] k R H.R H A Y e 1 E V.] | #.^ E e r E c.V.&.V p e $.}.#.m w R E.E H A Y e Y V.] x c.E Y ",
"  9 x P #.' R e $.P H _.K.$.r r +.V.o.Y &.R R E E ( Q.!.! v v P K.#.v x A $.Y H }.U.$.P o.}.D E V.R ",
"Y E E r E t.} r k E _.#.Y e E D r &.|.E $.t.A E L A ! H.K.l n r t.Y w [ j k E }.c.Y A G > &.$.E E 0 ",
"r V.}.D r R Y e E E.&.k j < Y p e o.V.E ' Y $.A O.c.K.R &.f.x < E E R x j x U.f.k x r A S E E e 4   ",
"  r t.+.r Y r r c.c.' E P P $.E E K.&._ R ] E Y $.o.' R Y &.~ < w 7.}.P k #.K.o.E Y r E O.Y E ' O   ",
"  r A o.+.e w $.$.&._.t.E R Y t.E R H.$.< A &.Y k R t.u.Y E E Y } 2.P w $.O.&._.V.o.] ' 2.D $.k e +.",
"  A D G E Y w E t.$.E Y R X.[ E ^.&.U $.P U.E.P k 2.t.#.R r r E &.$.R r Y t.&.E ' ;.h. X}.2.E R ~..X",
": Y r P E Y r o.P w 7 e Y _ { n | $.k ! E.W.I f E }.c.R } A ^ $.o.V.V.P ~ R k w R ] ] X.8.}.o.~..X` ",
"R O.}.V.E E A 1 E w Y o.V.V.~ v l ~ j ~ E.( k ~ U.&.' E E o.P &.&.' V.+.C E w P K ~.u.X.x $.&.V.&.  ",
"  E &.c.&.E R &.7.-.9.G #.c.|.u.k P R #.~ E e R &.$.U.&._ ] _ E E t.o.c.G ' -.9.G t.U.K.P Y #.' E e ",
"2.o.Y Y o.o.&.$.^ o.' P P E E V.t.o.E c._.~.o.^ E r Y c.o.O.' E R o.Y R P E o.' Y A Y E t.E $.}.2.J ",
"r }.$.O.t.&.R o._.K.$.R r E A P V.t.u.K.E Y k E V.-.] D 2.O.}.$.< x R r E (.oX$.R r R Y &.|.D.$.R   ",
": $.t.k.2.R #.|.&.E r ^ c.c.E D $.U.E Y e w k r K ~.o.R O.V.( R R [ x E V.&.O.A o.&.U.$.P ~ Y <     ",
"  A t.&.' _ K.E.E O.E k.c.D ' _.#.t.A D _ k < Y E t.R A 2.U.R t.#.R R &.E.E u.+.(.V.#.] R E x r 4   ",
"p E #.R D +.E.&.Y Y c._.E _ R ^ c.' r P ' 7.O.E e R R G o.$.E o.^ #.t.E.t.R o.(.k.J -.k E $.r Y R p ",
"A V.k.E | V.$.A r +.&.E R e Y _ E +.A Y ' 7.t.}.O.< Y #.E.&._ } ' ^ $.&.Y r 2.t.Y _ ' r R E E V.D.&.",
"* Y }.u.E G ( c.^ t.A _ x D o.t.E O.t.~ e R ' R V.E R k E E.#.Q H D r ^ c.o.t.e _ n k R ^ &.}.}.#.A ",
"  % P }.2.r < P c.o.G X.E _.|.$.+.D.Y k c c J B P V.t.[ ' A 2.E Y R < 1 A c.+.D X.E $.&.&.&.&.$.    ",
"    & A R E R _ D (.O.O.V.|.^ ) OXH P Y 9. . .O.Y E &.Y x w A R ^ oXt.' _ e ~.+.] t.2.E &.R E 8.    ",
"    a &.&.V.V.O.;.' D.P c.R < s.H.Y ~ K.U.} ] 2.' E o.E A o.V.U.$.R V.t.k _ E }.A 2.P r Y R c.c.'   ",
"  E 2.E D o.&.U.8.e &.+.O.Y r ! P x k R H.!.~ H t.&.V.o.&.}.d.^ O.+.&.&.$.} e t.2.O.R 1 e x R $.P   ",
"  &.t._ ' +.V.&.P o.c.c.2.x k P A Y x k ! !.c.&.o.P ( P t.V.Q E E t.t.V.t.P O.c.V.&.G G D R R A %   ",
"e ' E ] R D +.k.D o.E &.P < k O.}.&.Y < Y V.E.E D D Y r &.P n x k k ! $.V.R o.R &.R 1 o.&.E e r p   ",
"  A V.2.Y E P o._.e < R < r 2.|.&.P ' E 2.~.P P E +.r P E 1 w k k b { P E V.P < R r E c.R E A A +.A ",
"    P V.~.o.#.A $.A < < r &.oX#.Y A #.A V.R j R #.t.E Y Y 1 E o.V._._.u.Y R P 1 1 R c.$.P o.Y O.G * ",
"    A E t.2.V.D - < > r &.E.$.D o.K.&.r o.d k c ] o.V.H P E o.E ( &.}./.H < r 1 r U.K.E K.t.o.r o   ",
"    &.o.R R t.~.A w V ^ E.~ e H ' D &.+.R e x w 2.V.$.Y r $.}.t.#.] P 2./.H k V H E.$.D R E $.R 3   ",
"    r R o.E k V.t.#.H e ~ w R o.H ` e t.O.E ' E #.P Y -.H C ^ }.t.9.R k t.V.8.H r E Y O.R k } $.2.a ",
"    r ( }.] < ( E.R H A Y r r E u.` ] R V.1 r r E &.V.O.V Y A &.V.#.m w R K.R H e Y r P &._ ] Y }.$.",
"  r &.V.&.Q x A &.Y H /.K.$.r r t.V.o.r t.Y k E c.&.V.V.P v c P K.#.v x A $.Y G _.U.$.P $.t.#.r ^ e ",
"  Y E w k R [ r k R V.t.R Y ' A r &._.E o.Y ' K.H A P &.d.x { r U.$.e [ r k Y }.U.#.P A A E t.E 4   ",
"      e P o._.A 1 K.#.k k r ' J N R V.o.O.Y $.Y E &.K.E &.E.E 1 $.&.P Y e Y U.f.k A r ^ ' R D #.    ",
"    Y t.V.&.P w &.f.E E A R U.&.o.r $.K.1 r o.E A E u.j.E &.&.Y o.V.R < < &.K.E E O.Y A ' R u p     ",
"    E c.E P Y w Y &._.V.O.' o.c.o.A Y $.r &.}.R A O.O.E A Y A $.K.^ A e Y E &.V.V.' k E V._ @       ",
"    < e : #.K.k R &.' E p g.L Y o.R r E &.&.E , < t.oXR R t.e P $.&.O.e Y t.&.' $.c.O.c ] -.8       ",
"        _ &.R & e r k o.R ' 8.r w o.r o.}.2.E $.R e P R V.E E c.$.P V.E ' E w w e Y t.5   s         ",
"        R Y       6 r O.K.< $.$.< 2 X 3 o.V.D $.E.s % $.R * A V.r * E 2.Y Y w % . X 5               ",
"                      w Y $ e U.Y         R # & ( ` o Y 2   : '     * +.G 2                         ",
"                        - . + R u               e u                   0 :                           "
};
