/* XPM */
static char *o_exit[] = {
/* columns rows colors chars-per-pixel */
"50 50 121 2 ",
"   c #141414",
".  c #181817",
"X  c #20201F",
"o  c #2C2418",
"O  c #312619",
"+  c #392C1D",
"@  c #3E301F",
"#  c #242423",
"$  c #282827",
"%  c #2C2C2B",
"&  c #352C22",
"*  c #3B2C24",
"=  c #3B3123",
"-  c #31302E",
";  c #3F3528",
":  c #343432",
">  c #393937",
",  c #3D3D3A",
"<  c #402F1D",
"1  c #44311D",
"2  c #48311D",
"3  c #5D3B1F",
"4  c #453326",
"5  c #4C3526",
"6  c #46352A",
"7  c #4A362A",
"8  c #443A2D",
"9  c #4F392D",
"0  c #543725",
"q  c #563926",
"w  c #5B3B25",
"e  c #563E2F",
"r  c #5B3E2C",
"t  c #4E3C32",
"y  c #503D32",
"u  c #623E27",
"i  c #5F412C",
"p  c #41413E",
"a  c #5E4431",
"s  c #534639",
"d  c #56493B",
"f  c #5A4D3F",
"g  c #664027",
"h  c #64432C",
"j  c #6C4328",
"k  c #724627",
"l  c #744927",
"z  c #7B4927",
"x  c #724628",
"c  c #754828",
"v  c #7A4C28",
"b  c #624330",
"n  c #454542",
"m  c #4A4A46",
"M  c #475047",
"N  c #475048",
"B  c #485149",
"V  c #5F5544",
"C  c #52524E",
"Z  c #565652",
"A  c #5A5A56",
"S  c #535F5D",
"D  c #5E5E59",
"F  c #625645",
"G  c #665947",
"H  c #675A48",
"J  c #54615E",
"K  c #63635E",
"L  c #576462",
"P  c #5B6765",
"I  c #596D6E",
"U  c #666661",
"Y  c #6B6B65",
"T  c #616D6B",
"R  c #6F6E69",
"E  c #64716F",
"W  c #73736C",
"Q  c #647170",
"!  c #637779",
"~  c #6A7E7E",
"^  c #787871",
"/  c #834B28",
"(  c #6C807F",
")  c #6B7F83",
"_  c #6B8285",
"`  c #66828C",
"'  c #69838A",
"]  c #718686",
"[  c #72888C",
"{  c #859E9E",
"}  c #879CA3",
"|  c #889EA4",
" . c #889FAA",
".. c #8AA1AC",
"X. c #8EA3B2",
"o. c #97A5B3",
"O. c #98A7B5",
"+. c #97ABB2",
"@. c #99A9B6",
"#. c #91A6BB",
"$. c #97A9B8",
"%. c #9BABBB",
"&. c #9DB3BF",
"*. c #A0B1BC",
"=. c #9BADC1",
"-. c #97AEC8",
";. c #9BB2CA",
":. c #A3B4C4",
">. c #A8B7C7",
",. c #A6B8C4",
"<. c #A3B6CB",
"1. c #A5B9CC",
"2. c #AABDCD",
"3. c #A4B7D0",
"4. c #A6B9D2",
"5. c #ABBED2",
"6. c #A3BCD8",
"7. c #ABBFD8",
"8. c #ABBFDF",
"9. c #ACC0D9",
"0. c #ACC2E0",
/* pixels */
"O o o o o o o o o o o o o o o o o o o o o o o o O O O O O O O O O O O O O O O O O O O O O O O O O O ",
"o                                               o e e e e e e e y y e e e e y e e e r r e e e e e + ",
"o                                               O l v v v v v v v v v v v v v v v v v v v v v v c 1 ",
"o                                               O l j w w w w 3 3 3 3 3 3 w w w w w w 3 3 3 3 j v 1 ",
"o                                               O l w p B B B B m m m m M M M M B B N M N N m q v 1 ",
"o                                               O l h T { | | .. .....X..... .....| | } } } ~ a v 1 ",
"o                                               O l h T ;.,.<.4.<.4.4.<.4.4.<.4.<.<.<.,.<.<._ b v 1 ",
"o                                               O l h E &.,.,.,.,.,.,.,.,.,.,.,.,.,.,.,.,.,._ b v 1 ",
"o                                               O l h Q 4.2.5.9.2.5.5.2.9.5.2.9.5.5.9.2.5.7.[ b v 1 ",
"o                                               O l h E *.,.,.,.,.,.,.,.,.<.<.2.<.<.,.,.,.,.] b / 1 ",
"o                                               O l h Q 6.2.5.9.2.7.9.5.9.9.5.0.9.9.0.5.5.7.[ b v 1 ",
"o                                               O l h E *.,.,.,.,.1.2.<.5.5.5.5.5.5.5.<.1.:.] a v 1 ",
"o                                               O l j Q 4.2.5.7.2.7.7.5.0.0.9.0.9.9.0.5.5.7.[ a v 1 ",
"o                                               O z j E :.>.2.2.<.5.5.5.7.7.7.9.7.7.7.5.2.1.[ a v 1 ",
"o                                               O l h E 1.2.2.5.2.7.7.7.0.0.7.0.7.7.9.5.5.5.[ a v 1 ",
"o                                               O z j Q 1.2.2.5.2.7.7.5.0.0.7.0.7.7.9.5.5.5.[ a v 1 ",
"o                                               O l j T &.,.,.,.,.<.<.<.4.4.4.6.4.3.4.<.<.,._ a v 1 ",
"o                                               O z j T ;.,.,.<.,.3.3.<.6.4.4.6.4.3.4.<.<.<._ a v 1 ",
"o                                               O z j T @.%.%.*.%.,.,.:.,.,.,.,.,.,.,.%.%.&._ b / 2 ",
"o                                               O k h P ;.,.<.3.,.<.4.,.4.<.<.4.<.<.3.,.<.<._ b v 1 ",
"o                                               O k h P +.%.%.%.%.%.%.%.*.%.%.*.%.%.%.%.%.%.( b v 1 ",
"o                                               O k h L -.,.,.<.,.<.<.,.<.,.,.<.,.,.<.=.<.;._ a c 1 ",
"o                                               O k h J ..o.o.@.o.o.O.o.@.o.o.@.o.o.O.o.o.o.~ b v 1 ",
"o                                               O k h J #.%.%.=.@.%.%.@.=.%.%.=.%.%.=.@.%.%.) b / 1 ",
"o                                               O k h J X.O.@.%.o.%.%.o.%.@.o.%.o.O.%.o.%.$.~ e w + ",
"o                                               O l h J X.O.@.%.o.%.%.o.%.%.o.%.O.O.%.o.%.$.! 6 o O ",
"o                                               O k h J #.%.%.=.%.%.%.%.=.%.%.=.%.%.=.%.%.%.! 6 & O ",
"o                                               O k h S ` _ ' ' _ ' ' _ ' ' _ ' ' ' ' _ ' ' I 6 - & ",
"o                                               O k h f F V V V V V V V V V V V V V V V F F V 6 O O ",
"o                                               O l h t y y y y y y y y y y y y y y y y y y y 6 O O ",
"o                                               O k w & * * * * * * * * * * * * * * * * * * * 0 k < ",
"o                                               O k q 5 j j j j j j j j j j j j j j j j j j w 5 c 1 ",
"o                                       . . . . O c q q c c c c c c c c c c c c c c c c c c u 5 c 1 ",
"o                             . . . . . . . . . O c q q j j j c c c c c c c c c c c c c c c u 5 c 1 ",
"o                       . . . . . . . . . . . . O j 7 q c c c c c c c j j j j j j c c c c c u 5 c < ",
"o                 . . . . . . . . . . . . . . X O j 7 q c c j j c c j j j j j j j j j j j c w 5 x 1 ",
"o             . . . . . . . . . . . # # # # # # O h 7 q c c c c c c c c j j j c c j c c c c u 5 j < ",
"o           . . . . . . . # # # # # # # # # # # O h 7 0 j c c c c c c c c c c c c c c c c c u 4 j < ",
"o         . . . . . X # # # # $ $ % % % % % % % O h 7 q c c c c c j j j c c j j c c c c c c u 5 h + ",
"o     . . . . . X # # # # $ % % % % - - : : : : & h 6 0 j j c c j j j j j j j j j j j j j c u 6 h + ",
"o . . . . . . # # # # % % % - : : : : > > , , , * h 6 0 j c c c c c j j j j j j j j j j j j u 4 h + ",
"o . . . . . # # # % % - : : : > , , , p p p p p = h 7 0 c c c c c c c c c c c c c j c c c c u 4 h = ",
"o . . . X # # % % - : : > , , p n n n n m m m m = h 7 0 c c c c c c c j j j j j j j j j j j u 4 h + ",
"o . . # # # % % : : > , p n n m m m m C C C C Z ; h 6 0 j j j j j j j j j j j j j j j j c j w 4 h + ",
"o . # # # % % : : , p n m m m C Z Z A A A D D D 6 h 6 0 c c c j j j j j j j j j j j j c c c w 4 h + ",
"o # # # % % : > , n n m C Z Z A D D K K K K U U 8 i 7 0 c c c c c c c j c c c c j j j j j j w 4 h @ ",
"o # # % % : , , n m m Z Z A D K K U Y Y Y Y Y Y 8 r 6 5 u u g u g u u u g g u u u u u u u u q 4 h @ ",
"o # % % : > , n m C Z A D K U Y Y R W W W W W W 8 r 6 * * * * * * * * * * * * * * * * * * * * 6 a * ",
"O $ % : > , n m C Z A K K Y Y R W W W W ^ ^ ^ ^ t r e e 9 e 9 9 9 9 9 9 9 9 9 9 9 9 9 9 9 9 9 e a + ",
"= s s d f f f F G H H H H H H H H H H H H H H H 4 O + + + + + + O O + + + + + + + + O + + O O + + O "
};
