/* XPM */
static char *T_back[] = {
/* columns rows colors chars-per-pixel */
"50 50 206 2 ",
"   c None",
".  c #00372E",
"X  c #0D3D39",
"o  c #033C37",
"O  c #1D3A2C",
"+  c #293E29",
"@  c #353F24",
"#  c #3B3513",
"$  c #4E3C14",
"%  c #493D16",
"&  c #513E15",
"*  c #4C380F",
"=  c #00413E",
"-  c #0F413D",
";  c #10433F",
":  c #3B4C27",
">  c #37492C",
",  c #284A3A",
"<  c #334F39",
"1  c #49411C",
"2  c #534017",
"3  c #55431A",
"4  c #59461C",
"5  c #5C481F",
"6  c #484926",
"7  c #5E4A21",
"8  c #524923",
"9  c #575730",
"0  c #4D5230",
"q  c #614D24",
"w  c #645026",
"e  c #675228",
"r  c #6A552B",
"t  c #6D592E",
"y  c #6F5A30",
"u  c #715C32",
"i  c #725B2F",
"p  c #766136",
"a  c #7B653A",
"s  c #7E6A3D",
"d  c #75653A",
"f  c #004B4D",
"g  c #014648",
"h  c #114541",
"j  c #144A45",
"k  c #19534E",
"l  c #1A5048",
"z  c #004E55",
"x  c #005354",
"c  c #005559",
"v  c #00595E",
"b  c #1A5751",
"n  c #1B5A54",
"m  c #1E5E58",
"M  c #265447",
"N  c #37564A",
"B  c #245D55",
"V  c #2F524C",
"C  c #1D615C",
"Z  c #22635C",
"A  c #2D6457",
"S  c #376554",
"D  c #025B62",
"F  c #01666A",
"G  c #016A6D",
"H  c #066568",
"J  c #026C73",
"K  c #066E78",
"L  c #02737A",
"P  c #067179",
"I  c #106364",
"U  c #266C65",
"Y  c #286E66",
"T  c #2A736B",
"R  c #2F7366",
"E  c #2D7A72",
"W  c #317D74",
"Q  c #307E7A",
"!  c #367167",
"~  c #465C58",
"^  c #45594D",
"/  c #446958",
"(  c #516E53",
")  c #676659",
"_  c #6F6E4B",
"`  c #487969",
"'  c #566F69",
"]  c #667775",
"[  c #7A7570",
"{  c #846B3E",
"}  c #846A3D",
"|  c #836D41",
" . c #896E40",
".. c #867145",
"X. c #897246",
"o. c #8B764A",
"O. c #8E794C",
"+. c #917B4E",
"@. c #947E52",
"#. c #827751",
"$. c #33837A",
"%. c #35897F",
"&. c #368178",
"*. c #51816E",
"=. c #488877",
"-. c #558472",
";. c #5B817C",
":. c #4A856D",
">. c #69817E",
",. c #968154",
"<. c #9B8253",
"1. c #B58F55",
"2. c #93887B",
"3. c #B8996E",
"4. c #C39759",
"5. c #047C85",
"6. c #087C86",
"7. c #107E85",
"8. c #05818B",
"9. c #09838D",
"0. c #16838D",
"q. c #098996",
"w. c #158D9C",
"e. c #168996",
"r. c #0D919F",
"t. c #12919E",
"y. c #1C909C",
"u. c #378C82",
"i. c #388E84",
"p. c #3A9086",
"a. c #3C958A",
"s. c #3F988E",
"d. c #309394",
"f. c #0E94A1",
"g. c #1494A3",
"h. c #1994A3",
"j. c #1A97A8",
"k. c #1D9AAA",
"l. c #1899A9",
"z. c #1E9EB1",
"x. c #249DAD",
"c. c #299CAB",
"v. c #239FB2",
"b. c #25A2B5",
"n. c #2BA6BA",
"m. c #2EA8BC",
"M. c #29A2B4",
"N. c #32A9BC",
"B. c #38ABBD",
"V. c #34A7B8",
"C. c #409A8F",
"Z. c #479987",
"A. c #429D92",
"S. c #45A395",
"D. c #48A797",
"F. c #4BAD9A",
"G. c #48A798",
"H. c #4FB39E",
"J. c #50B49F",
"K. c #4EA48E",
"L. c #4BB2B7",
"P. c #62BBBF",
"I. c #35ADC1",
"U. c #39AFC3",
"Y. c #3DB1C5",
"T. c #3EB2C9",
"R. c #44B3C4",
"E. c #43B5C9",
"W. c #4BB9CB",
"Q. c #49B7C6",
"!. c #52BDCD",
"~. c #59C1CE",
"^. c #56C1D0",
"/. c #5AC3D1",
"(. c #79CCCC",
"). c #61C6D1",
"_. c #6BCBD4",
"`. c #66C9D3",
"'. c #72CFD6",
"]. c #76D0D6",
"[. c #79D2D7",
"{. c #7BD3D8",
"}. c #70CACE",
"|. c #8A8C8B",
" X c #81928F",
".X c #879794",
"XX c #9DA09D",
"oX c #A8A49E",
"OX c #9EA4A2",
"+X c #A5A6A5",
"@X c #BBBCBC",
"#X c #B9B6B2",
"$X c #B1B2AF",
"%X c #9ADBCF",
"&X c #85D5D4",
"*X c #8DD9D2",
"=X c #8AD7D5",
"-X c #93DAD1",
";X c #A0DECE",
":X c #AADCD6",
">X c #ACE1CF",
",X c #CBCBCB",
"<X c #D5D5D5",
"1X c #C4E5DB",
"2X c #DFE0E0",
"3X c #E0E0E0",
/* pixels */
"                                      J L 7.d.P.&X=X&X}.Q.k.r.q.q.                                  ",
"                                  J L 8.h.L.(.:X1X1X:X%X(.).R.c.t.q.                                ",
"                              L L 8.t.M.Q.(.%X%X;X%X(.!.B.c.e.6.L                                   ",
"                          L L 8.t.b.U.W.).&X*X&X{.].).Q.M.e.7.                                      ",
"                        G L 5.g.n.E.^._.].{.{.{.{.{.'.`.!.B.c.y.w.r.q.8.5.                          ",
"                    G G G L 5.g.m.E./._.{.&X*X*X*X*X&X{._.~.!.W.R.I.b.l.f.f.                        ",
"                G J L L L L 8.g.n.Y.W./._.{.-X%X>X>X;X-X&X].`.^.W.T.I.b.g.5.F c                     ",
"            g c J 5.9.8.5.5.8.g.n.I.T.E.W./._.{.=X*X=X&X{._./.W.E.I.b.t.5.J v z = o                 ",
"        . = c J q.k.n.V.c.h.r.r.f.g.l.z.n.U.E.W.W.!.!.W.W.E.I.M.k.h.g.g.t.9.5.J v f = o             ",
"        f c J 9.v.I.E.!.!.W.R.V.c.h.t.f.g.g.j.j.h.h.h.h.t.t.g.l.v.n.N.I.m.b.k.r.5.F c g             ",
"    . o g c F 6.h.m.E.!./.)._._.`.~.!.W.R.Y.I.N.N.N.N.N.N.N.N.Y.W.^.^.W.Y.m.v.g.5.F v z g o         ",
"    g f c D G L 5.q.g.b.I.E.!.)._._.'.'.'._._._._._._._._._._._._._./.W.U.M.w.6.F v c c f f         ",
"    F L 9.r.g.r.8.5.5.9.g.v.n.I.Y.W.!././././././././././././.!.W.Y.N.c.e.6.5.8.9.9.5.G v z         ",
"    L 5.q.l.b.m.N.n.v.j.w.e.q.t.k.b.N.I.I.I.I.I.I.I.I.I.I.I.I.N.v.h.w.t.k.b.b.b.b.k.e.P D z         ",
"    J L 8.f.z.n.I.Y.E.E.Q.R.V.c.k.j.k.k.k.k.k.k.k.k.k.k.k.k.k.k.k.c.N.R.!./.!.E.I.b.w.P D z         ",
"    f c F L 9.g.v.I.E./._.'.].'.`.).).).).).).).).).).).).).).).)._._.].'.`.!.B.M.h.9.J D z         ",
"    o o g z D K 9.g.z.N.R.~._.'.{.{.{.{.{.{.{.{.{.{.[.{.[.[.[.[.{.{._.).L.L.d.0.P G F D c z         ",
"        , < N V n I L 6.w.c.U.W.^./.).).).).).).).).).).).).).).~.W.B.c.0.P I C B M , ,             ",
"        3 r | p 9 0 ^ / ` &.u.y.j.k.v.v.v.v.v.v.v.v.v.v.v.v.c.k.y.0.Q ` / S N 0 9 7 3 $             ",
"        w u | s t p ..+.@.#._ ( ` ` -.-.-.-.-.` ` *.-.-.-.-.*.` ( ( _ | s u e q q q 7 4             ",
"        r y s u t p X.+.@.+.X.o.O.@.,.,.,.,.+.X...o.@.@.,.@.+.o...| { { s u r q q q q q             ",
"        4 q u u r p X.+.@...s s ..+.,.,.,.,.+.....+.,.,.,.,.@.o.{ p u p u e q q q q 4 3             ",
"        $ 3 7 7 7 y | o.O.| p s | O.,.,.,.,.+.....+.,.,.,.,.+...s t t u r q 4 3 4 4 2 $             ",
"        $ 2 4 4 4 r { X.X.s t u s o.,.,.,.,.+.....O.,.,.,.,.O.{ u q w t r q 4 & 2 3 & $             ",
"        $ 2 3 3 & 7 u s { u q q y | +.@.,.@.o.s p X.+.@.@.+...p q 2 4 q w q 4 & 2 3 & $             ",
"        $ 2 3 3 & 5 t s { u q q t s | o.o.X.s t t } X.O.o...s u q & 3 q q q 4 & 2 3 & $             ",
"        $ & 3 2 & 5 r s { i q q t s {  .{ { s r e p { {  .{ } u q & 3 q q q 5 3 3 3 & $             ",
"            $ 3 5 7 7 r u r 7 q e u s { { { p 5 4 y s { { { p t 7 & 3 q q 7 7 5 3 &                 ",
"            $ 2 3 3 & q t r 7 4 4 r s { { s t 4 3 r p { { s t 7 3 & 3 q 4 3 3 3 2 &                 ",
"            $ $ $ $ & 7 r w 4 3 4 e u s s t q 3 & 7 r s s u r 5 2 & 3 q 4 3 & & $ $                 ",
"            O + > > 6 8 4 3 & & 4 7 q r r e 7 2 & 7 e t r w 7 4 3 & 3 5 8 6 > > , O                 ",
"            X h k B A < 6 % $ & 4 7 q q q q 5 & & 5 q q q q 7 4 & * $ 6 < A Z n j X                 ",
"            k B T T Y Z M , + @ 6 3 7 q 7 3 2 $ $ 3 3 7 q 7 4 3 % # @ M B Y T T Z n                 ",
"        +X.X;.=.p.%.T Z k k b M M > 1 1 8 ( ` :.:.:.( 8 % 1 : , , M l l n Y %.i.=.]  XXX            ",
"        ,X@X+X.XZ.' ~ V M B T E %.=.:.:.=.K.H.H.H.S.Z.:.` ! W &.E T m j M N ' >. XOX@X,X            ",
"        ,X<X<X<X@X+X|.] ~ ! W i.A.D.F.H.H.H.H.H.H.F.F.F.D.A.A.A.a.%.R S ' |.+X@X<X3X<X<X            ",
"        XX$X,X,X@X+X|.] ` =.S.F.H.H.H.H.H.H.H.H.H.H.H.H.H.F.G.A.s.a.&.` ] |.+X@X,X,X#XoX            ",
"    0 _ 3.3.2.[ ) ^ V A W a.F.H.J.J.H.H.H.H.H.H.H.H.H.H.H.F.F.A.A.A.i.W A V ^ ) [ 2.3.3...9         ",
"    0 d 1.4.1.<._ / Y %.A.F.H.J.H.H.H.H.H.H.H.H.H.H.H.H.H.F.F.A.A.A.A.a.%.Y / _ <.1.4.1.s 9         ",
"        : : : > < B T p.F.H.H.H.H.H.H.H.H.H.H.H.H.H.H.H.H.F.F.A.A.A.A.s.%.T B < > : : :             ",
"                n Y i.S.H.J.H.H.H.H.H.H.H.H.H.H.H.H.H.H.H.F.D.A.s.a.a.s.i.%.Y Z                     ",
"                Y %.A.F.H.H.F.D.S.F.F.H.H.H.H.H.H.H.H.H.H.F.D.A.a.a.a.a.a.i.W T                     ",
"            n Z E i.A.F.H.F.S.A.A.D.F.H.H.H.H.F.F.H.H.H.H.F.D.A.a.p.i.i.i.u.%.E U n                 ",
"            n Y %.a.A.S.S.S.A.A.A.D.F.H.H.H.H.D.S.F.H.H.H.F.S.A.a.i.u.u.i.u.%.%.Y C                 ",
"        n m Y E p.s.A.A.A.s.a.a.C.A.S.F.H.H.F.S.A.F.H.H.F.S.C.p.%.%.%.u.u.i.p.i.%.Y b h             ",
"        n C Y W i.a.s.A.s.a.p.a.s.A.A.S.S.S.S.a.a.s.A.S.S.A.a.%.E T E %.%.u.i.u.%.T b h             ",
"        b C Y W u.p.p.p.p.i.i.a.s.A.A.A.A.A.C.a.i.i.a.C.A.A.a.%.E Y T E %.i.u.%.E Y k ;             ",
"        h k Y E u.i.u.u.u.u.i.i.p.p.a.s.A.A.C.a.i.i.i.p.p.p.i.%.E Y Y T T T T Y Y Z k ;             ",
"            j k Z Y T T T E %.%.u.u.i.i.p.p.p.i.i.i.i.i.i.i.u.%.E Y Y Y Y Y m l h X                 ",
"                    X - j b Z Y T T T %.%.u.i.i.i.i.i.i.u.%.%.T Y n j X X X X                       "
};
