/* XPM */
static char *T_collect[] = {
/* columns rows colors chars-per-pixel */
"50 50 177 2 ",
"   c None",
".  c #292038",
"X  c #242335",
"o  c #2F2541",
"O  c #312643",
"+  c #322947",
"@  c #332948",
"#  c #392B4D",
"$  c #34334F",
"%  c #3B2E52",
"&  c #353253",
"*  c #3E325C",
"=  c #403055",
"-  c #42335B",
";  c #453563",
":  c #4E3764",
">  c #443861",
",  c #4A3A65",
"<  c #4C3A6C",
"1  c #533D6E",
"2  c #4F3C70",
"3  c #543D73",
"4  c #583E74",
"5  c #573F78",
"6  c #583E79",
"7  c #564073",
"8  c #5B4276",
"9  c #5D447A",
"0  c #61457B",
"q  c #624A7F",
"w  c #664682",
"e  c #694685",
"r  c #664A81",
"t  c #6B4A85",
"y  c #6E478B",
"u  c #6E4C89",
"i  c #724B8B",
"p  c #6A5286",
"a  c #6E5389",
"s  c #73548D",
"d  c #79518F",
"f  c #764D90",
"g  c #7B4E93",
"h  c #7F4E99",
"j  c #765590",
"k  c #7C5294",
"l  c #7E5897",
"z  c #7F5198",
"x  c #7F5898",
"c  c #804E97",
"v  c #804F99",
"b  c #815297",
"n  c #83539A",
"m  c #89559E",
"M  c #855B9E",
"N  c #8A599F",
"B  c #8C54A2",
"V  c #8D59A3",
"C  c #9156A6",
"Z  c #925BA7",
"A  c #9555AA",
"S  c #9955AD",
"D  c #965AAA",
"F  c #9A59AE",
"G  c #9C56B1",
"H  c #9E5BB2",
"J  c #A25BB6",
"K  c #A65CB9",
"L  c #AA5DBD",
"P  c #8A60A1",
"I  c #9165A7",
"U  c #9463AA",
"Y  c #9865AD",
"T  c #9E61B2",
"R  c #9F6AB5",
"E  c #A263B5",
"W  c #A661BA",
"Q  c #AA63BD",
"!  c #A66DBA",
"~  c #AA6BBE",
"^  c #A370B7",
"/  c #A573BB",
"(  c #AE62C1",
")  c #AE6AC1",
"_  c #B264C4",
"`  c #B469C6",
"'  c #B667C8",
"]  c #B967CA",
"[  c #B66AC8",
"{  c #BA6DCD",
"}  c #AE75C2",
"|  c #AE7FC4",
" . c #B175C6",
".. c #B279C6",
"X. c #B772CA",
"o. c #BC74CE",
"O. c #BB7ACE",
"+. c #B57CCA",
"@. c #BE6FD0",
"#. c #BE72D1",
"$. c #BD7AD1",
"%. c #C36FD4",
"&. c #C373D4",
"*. c #C47BD6",
"=. c #C676D8",
"-. c #C976DA",
";. c #C67BD9",
":. c #CB7ADC",
">. c #CF7EE0",
",. c #D17EE2",
"<. c #BE82D3",
"1. c #BB8DD2",
"2. c #BB96D4",
"3. c #BDA1DA",
"4. c #C18DD6",
"5. c #C684D9",
"6. c #CB83DE",
"7. c #C48EDA",
"8. c #C98ADD",
"9. c #C396DA",
"0. c #C895DE",
"q. c #C698DC",
"w. c #CE85E0",
"e. c #CE8FE2",
"r. c #D384E5",
"t. c #D48AE6",
"y. c #D686E8",
"u. c #D986E9",
"i. c #D68DE9",
"p. c #DA8BEB",
"a. c #CD9EE5",
"s. c #CC94E2",
"d. c #D193E5",
"f. c #D399E7",
"g. c #D694E9",
"h. c #DC92ED",
"j. c #D49EEB",
"k. c #DB9BEE",
"l. c #DF96F0",
"z. c #DD9BF0",
"x. c #E190EF",
"c. c #E195F0",
"v. c #E39CF3",
"b. c #CEA6E7",
"n. c #C7A9E3",
"m. c #CFABEB",
"M. c #D3A2EB",
"N. c #D8A6EF",
"B. c #D3AAEC",
"V. c #C5B9E7",
"C. c #CFB2EB",
"Z. c #D2B1EE",
"A. c #DDA4F2",
"S. c #DCACF3",
"D. c #CFBFF1",
"F. c #D4B4F1",
"G. c #DDB4F6",
"H. c #D6BEF5",
"J. c #DBBDF7",
"K. c #DABCF7",
"L. c #DBBCF8",
"P. c #E2A0F4",
"I. c #E2A4F4",
"U. c #E1AEF6",
"Y. c #E1ACF5",
"T. c #E1B2F6",
"R. c #E0B9F8",
"E. c #CFCBF3",
"W. c #D5C6F6",
"Q. c #D5C3F6",
"!. c #D9C0F7",
"~. c #D0CDF5",
"^. c #D8C5F8",
"/. c #D5CFF8",
"(. c #CFD5F6",
"). c #CDD9F5",
"_. c #D1D1F6",
/* pixels */
"                                                                                                    ",
"                                    C C C l n                                                       ",
"                                C { r.t.t.o.V s n                                                   ",
"                              S ' p.U.Q.Q.D.3.! B z                                                 ",
"                              S t.U.L.Q.!.^.~.m. .B                                                 ",
"                            G ;.p.z.z.z.l.P.J./.j.T p                                               ",
"                          S _ :.&.%.%.%.%.u.P.Q.H.O.l q                                             ",
"                          C ' D D H L L C ` u.H._.M.( l r                                           ",
"                          x L s s       3 B -.F.).!.t.H s                                           ",
"                          l J           9 C &.F.(.Q.M.~ a                                           ",
"                          s s     a s u l H -.A.Q.V.9.! u u u 8                                     ",
"                                a a b J L { p.S.C.3.1.R a l s q 9                                   ",
"                              a a l D ` @.,.x.S.n.2.| Y l I P s r                                   ",
"                              a l ! } ;.r.r.v.k.4...R Y O.;.~ E b 9                                 ",
"                              u E ..7.d.i.h.v.t. .R ! $.r.,.[ H b 9 9                               ",
"                            9 d ! 1.M.M.A.P.v.h.t.t.t.r.u.r.{ J n 9 w 0                             ",
"                      p r 3 9 N / q.B.F.F.U.P.v.v.v.p.p.r.-.@.K n 8 u u 0                           ",
"                  q a l f u 9 Z ^ 4.B.F.F.F.S.A.A.k.h.i.6.&._ H s 8 r i u 0                         ",
"                q u l m C B u l Y ..0.b.Z.F.F.S.B.j.d.e.5.[ J B r 9 s m n 0                         ",
"                u n D Q [ ) c r V ~ O.7.a.m.B.M.a.0.8.5.o.W V s 9 u m J C u 7                       ",
"              u l F [ :.u.,.H l n F _ { O.<.<.<.$.$.o.{ Q D d q q m J K S f 9 3                     ",
"            8 i S ` >.p.h.i.&.H l m F J L L L L L L L L J n u u f K { _ F f 3 < 1 <                 ",
"            7 i K :.p.P.R.F.i.&.H l l B J K K K K K K K H n l n Q &.=.{ D i 3 < 8 3 <               ",
"            8 f L -.p.P.J.J.F.i.;.H F M C G G S G G S S J _ ` X.6.h.p.&.D e < 3 w 9 3 <             ",
"          7 8 f L &.r.v.U.J.Q.~.F.8.5.;.&.%.&.&.&.&.#.&.;.5.8.d.U.P.u.&.Z u 3 w f u 9 2 <           ",
"        9 w w f G { r.p.v.U.H.Q._.E.J.j.g.i.r.r.t.i.g.g.j.M.M.F.J.P.p.{ n 0 w v B h y 6 <           ",
"      9 f B B f h K =.r.p.v.U.F.Q.Q.~.~.E.E.~.~.E.Q.Q.Q.H.H.Q.H.U.v.p.E y 3 u B C B f e 6 >         ",
"    9 e B H F B z B _ &.r.u.l.v.U.J.Q.Q.Q.Q.Q.Q.Q.Q.Q.Q.Q.J.J.U.v.h.o.N w 5 f H H C n y 6 -         ",
"    9 f Q _ ( J B n F _ #.:.r.r.h.P.P.P.P.U.U.U.U.U.T.F.F.U.A.h.p.&.E n 0 i H Q W H B i 6 *         ",
"    9 n _ @.#.Q C l l D ( { o.:.r.p.p.h.v.x.v.v.v.v.v.z.z.h.p.r.&.( C n l H [ { ) E V i 6 *         ",
"    9 n _ &.;.&.Q B n n C Q _ { &.-.r.u.u.u.p.p.p.p.p.p.y.:.:.=._ C B C K _ @.&.X.~ D i 3 &         ",
"    9 n _ :.>.r.:.[ H n n G J K ( _ &.:.:.:.:.:.:.:.:.:.-._ L K G C J _ { &.;.;.o.) D f 3 &         ",
"    9 n ` -.r.p.h.h.;.J H J J J G G Q _ ' ] ] ] ] ' _ _ L J G J K { :.;.6.t.d.6.o.Q V i 3 &         ",
"    0 f _ %.>.h.A.T.j.6.6.&.&.{ K H H L ( ( _ ( _ ( ( L H K _ &.:.h.z.f.k.k.g.8.o.T b u 7 &         ",
"    4 i S _ ;.t.k.S.T.F.S.g.t.t.r.=.&.&.&.&.&.&.&.&.&.&.&.&.=.y.h.U.J.T.U.A.d.;.( V i 9 < $         ",
"      , i S _ 6.k.P.U.F.J.J.J.T.P.v.v.v.h.t.r.r.r.r.r.p.p.p.h.k.U.J.J.U.U.k.w.{ J n u 8 > X         ",
"      > 0 l F _ 6.h.P.U.J.Q.Q.Q.!.J.L.L.F.U.U.U.U.U.U.T.T.T.F.J.J.J.F.P.k.t.;.( F n r 7 -           ",
"      . , w f E { :.p.z.P.T.J.Q.Q.Q.J.L.J.J.J.J.J.J.J.J.J.J.J.J.T.T.P.h.i.:.[ H n s 9 > o           ",
"        # 3 u b F _ &.:.p.z.P.U.T.J.J.L.J.J.J.J.J.J.J.J.J.J.F.P.v.v.p.r.=.{ J b i u 9 -             ",
"          = 8 u b H { { &.r.p.p.v.P.P.P.P.P.U.U.P.P.U.U.P.P.v.v.r.r.&.{ _ H n i u 8 , o             ",
"            - 8 u n F K ( @.&.&.r.p.p.p.p.p.p.p.p.p.p.t.r.r.r.r.#.{ L F B n f u 8 , +               ",
"              - 7 r b B B J L ( { &.&.&.=.&.&.&.&.&.&.#.{ { { { L J C m l d 0 7 , @                 ",
"                % 1 0 u i n B B H L L ( _ _ Q W W Q Q Q L L Q K F B l u r 0 < %                     ",
"                  O - < 8 u u i n m B C D D C B C C C C C C B m f u u 9 < - o                       ",
"                      O % : 1 8 i u i l l l l l l l l l l i w w 1 1 : - o                           ",
"                              - 1 4 0 0 0 0 0 0 0 8 8 8 8 1 , , %                                   ",
"                                                                                                    ",
"                                                                                                    ",
"                                                                                                    ",
"                                                                                                    "
};
