/* XPM */
static char *T_e_1[] = {
/* columns rows colors chars-per-pixel */
"50 50 224 2 ",
"   c None",
".  c #010201",
"X  c #0B0F0B",
"o  c #1B1A12",
"O  c #3A1D17",
"+  c #35281E",
"@  c #063431",
"#  c #093A37",
"$  c #123430",
"%  c #3A352D",
"&  c #373832",
"*  c #302F29",
"=  c #4E2217",
"-  c #48261C",
";  c #53251A",
":  c #54251B",
">  c #76143D",
",  c #5B2C23",
"<  c #532A22",
"1  c #4A342E",
"2  c #5B342D",
"3  c #483B34",
"4  c #583A34",
"5  c #472D25",
"6  c #63342B",
"7  c #6A3A2D",
"8  c #6D3C33",
"9  c #693732",
"0  c #723C37",
"q  c #682B2D",
"w  c #581D1F",
"e  c #10413C",
"r  c #32433C",
"t  c #73423A",
"y  c #7B483B",
"u  c #71412F",
"i  c #59453E",
"p  c #711A44",
"a  c #7C1B46",
"s  c #6D1A42",
"d  c #54255C",
"f  c #4C2052",
"g  c #6E3577",
"h  c #0E4843",
"j  c #124C46",
"k  c #13534D",
"l  c #1B524C",
"z  c #155B55",
"x  c #185A54",
"c  c #26554E",
"v  c #3C5452",
"b  c #2A534E",
"n  c #1B635C",
"m  c #2A625C",
"M  c #1E6C64",
"N  c #1E7169",
"B  c #206D65",
"V  c #207067",
"C  c #22736A",
"Z  c #25786F",
"A  c #297168",
"S  c #267B71",
"D  c #287E74",
"F  c #377870",
"G  c #4B5954",
"H  c #7C4741",
"J  c #6D574E",
"K  c #6C6259",
"L  c #476A66",
"P  c #596868",
"I  c #507470",
"U  c #7B7977",
"Y  c #6E6A68",
"T  c #41615E",
"R  c #945D39",
"E  c #831E49",
"W  c #891A43",
"Q  c #951E4B",
"!  c #94224E",
"~  c #9B2251",
"^  c #9A2B54",
"/  c #90344D",
"(  c #A12454",
")  c #AC2B5A",
"_  c #A62857",
"`  c #B12C5D",
"'  c #AA335B",
"]  c #B53261",
"[  c #BA3965",
"{  c #B62F60",
"}  c #C33B6A",
"|  c #C23769",
" . c #864A48",
".. c #885549",
"X. c #915B54",
"o. c #8F5952",
"O. c #986749",
"+. c #996958",
"@. c #8A6952",
"#. c #A6774A",
"$. c #A97259",
"%. c #AE7750",
"&. c #BB4669",
"*. c #857B78",
"=. c #836D64",
"-. c #A9726B",
";. c #C4426D",
":. c #C4496E",
">. c #C1506F",
",. c #CB4571",
"<. c #CD4B74",
"1. c #C54B71",
"2. c #D14D77",
"3. c #C85374",
"4. c #D3547A",
"5. c #D45A7D",
"6. c #D95B7F",
"7. c #298177",
"8. c #2B847A",
"9. c #2E897F",
"0. c #32867C",
"q. c #BA8357",
"w. c #948077",
"e. c #B0896C",
"r. c #C38C59",
"t. c #CA915C",
"y. c #DCA35C",
"u. c #DBA468",
"i. c #E1AB6F",
"p. c #C49B7C",
"a. c #51039B",
"s. c #662693",
"d. c #7932A6",
"f. c #632C9A",
"g. c #5D5098",
"h. c #784B90",
"j. c #47698D",
"k. c #7646AF",
"l. c #8A38B4",
"z. c #826A9C",
"x. c #D55C82",
"c. c #DA5D81",
"v. c #CF5481",
"b. c #D46485",
"n. c #DB6283",
"m. c #DD698B",
"M. c #D6678C",
"N. c #E36C8B",
"B. c #E06587",
"V. c #E5708F",
"C. c #E8718E",
"Z. c #E57392",
"A. c #E97C9A",
"S. c #E87896",
"D. c #8409EC",
"F. c #992FE5",
"G. c #9B59E0",
"H. c #2F8B80",
"J. c #318E83",
"K. c #3C848B",
"L. c #329186",
"P. c #349489",
"I. c #36998D",
"U. c #389B8E",
"Y. c #3A9E91",
"T. c #2F9084",
"R. c #3DA395",
"E. c #3FA897",
"W. c #4C8D92",
"Q. c #6B8783",
"!. c #41A798",
"~. c #42AB9A",
"^. c #43AB9A",
"/. c #45B29E",
"(. c #49B39E",
"). c #48B7A0",
"_. c #49B8A1",
"`. c #47B5A0",
"'. c #9A9695",
"]. c #868F8D",
"[. c #B59682",
"{. c #AB96B0",
"}. c #B9B8B8",
"|. c #ADACAB",
" X c #A49EA4",
".X c #EB819E",
"XX c #CDAA8E",
"oX c #E4B68D",
"OX c #E8B991",
"+X c #ED86A3",
"@X c #EE8DAB",
"#X c #EC88A6",
"$X c #EF91AE",
"%X c #ED95B4",
"&X c #F096B2",
"*X c #F199B5",
"=X c #F19DBA",
"-X c #F091AD",
";X c #D7B3AA",
":X c #F1A1BE",
">X c #C49F82",
",X c #D8C6AF",
"<X c #FBDCAD",
"1X c #EECDB3",
"2X c #E8C09B",
"3X c #B1AFC9",
"4X c #F2A8C7",
"5X c #F5B9DA",
"6X c #F5B2CC",
"7X c #F6BFE1",
"8X c #D7A0D2",
"9X c #C7C6C6",
"0X c #D6D4D7",
"qX c #FFDEC1",
"wX c #F5D6CA",
"eX c #F1CFC3",
"rX c #FFE4C4",
"tX c #FFEBC6",
"yX c #FFEDCA",
"uX c #FCE5CB",
"iX c #F7C4E7",
"pX c #FAD6EF",
"aX c #F9F9F9",
"sX c #EDE5ED",
/* pixels */
"                        _ [ ,.,.v.#X6X6X6X6X%Xb.[ ) (                                               ",
"                        | ;.3.Z.&X4X5XpXaXaXpX5X&Xx.} ) (                                           ",
"                          ) ( [ 1.6.Z.=X5X5X5XiX5X@XN.4.;.{ _                                       ",
"                      ` [ ) _ [ <.m..X&X=X=X4X6X6X=X$X+XZ.c.<.[ )                                   ",
"                ;.;.;.<.c.c.x.Z.+X-X=X:X:X:X:X:X=X:X=X@X.XZ.c.} ` ( ~ ~                             ",
"            [ [ ;.4.N.S.+X-X=X:X4X4X6X5XiXiX7X6X=X=X&X#XA.Z.6.} ` ( ~ ( ~ ~                         ",
"        a E ^ ' ;.4.n.Z.+X@X*X6X7XiXiXiXiXiX5X4X&X#XA.Z.C.C.c.} ` ( ) } ] _ ( ~                     ",
"    E ! _ [ <.4.4.<.;.<.4.c.N.A.@X@X@X@X@X@X@X+XA.N.n.c.6.6.2.} [ [ 1.6.2.| ) ~ E p p               ",
"p a ! ) ;.4.N.Z.A.Z.m.x.4.<.<.<.2.4.6.6.6.6.6.6.4.<.;.} ;.2.6.m.m.Z.Z.N.c.<.[ ) ~ E a p             ",
"p a ! ) [ 4.N..X&X=X*X-X.XV.n.c.c.c.n.n.n.n.n.n.n.m.V.Z.A.@X&X*X&X#XA.N.n.6.<.| ) ~ E p p           ",
"^ ( ] ] ) [ 4.m.Z.A.#X&X*X*X&X&X&X&X&X&X&X&X&X&X*X=X=X=X=X=X*X@X.XZ.N.c.<.} ` ) ` { _ ! a p         ",
"[ } 4.6.6.2.,.} } 2.n.N.Z.A.+X#X+X+X+X+X+X+X+X+X+X+X+X+X.XZ.N.B.c.4.<.} ] ) ] } | [ ) ~ E p         ",
"} <.B.C.N.V.Z.Z.m.4.,.,.<.6.n.n.n.n.n.n.n.n.n.n.n.n.n.n.6.4.<.,.,.,.4.c.c.6.6.6.,.[ ) ~ E p         ",
"] &.4.n.N.Z.A.#X$X@XA.m.x.x.b.b.b.b.b.b.b.b.b.b.b.b.b.b.x.x.m.A.#X+XA.V.B.6.4.<.} ) ~ E a >         ",
"W W ! ^ [ <.c.Z..X@X&X*X*X*X*X*X*X*X*X*X*X*X*X*X*X*X*X*X*X*X*X&X@X+XN.2.,.;.' Q W W > > >           ",
"w q  .o. ./ ' ' ' &.3.b.m.Z.A.A.A.A.A.A.A.A.A.A.A.A.A.A.A.A.Z.m.4.,.) W W W /  ... .9 w             ",
"= 6 o.X.t H X. .9 0  ./ ' [ &.>.>.>.>.>.>.>.>.>.>.>.>.>.>.&.&.' /  .0 9 H o. .t o.+.9 =             ",
"; 7 X.X.t t ..y 7 u y  .H 8 9 y ..+.-.-.-.-.-.X.X.-.-...y 9 8 y  .y u 7 y ..y 9 ..+.t :             ",
"9 t o...8 0 ..$.t.r.%.+.=.4 O O < y O.$.$.$.$.+.O.O...2 O O 1 K +.#.q.t.%...t 9 ..X.H 9             ",
", 7  . .9 0 ..%.y.%. .w.|.P X . o @.oXOXoXoXoXoXOXOXe.+ . . G |.'.y #.y.r.o.t 9 H ..9 ,             ",
"= , 9 9 , , 8 #.y.y.r.XX3Xz.a.a.s.{.qXrXqXqXqXqXrXrX;Xd.a.a.k.3X}.p.u.u.%.y 6 , 6 9 , =             ",
"= : 6 2 ; ; 6 ..q.u.oX,X3XG.D.D.F.8XuXtXtXtXtXtXtXtX8XF.D.D.G.3X,X2Xi.r.O.9 < ; , 6 , =             ",
"= : 6 6 ; : 2 2 4 ..q.>X;X1XeXwXwXuXyXyXyXyXyXyXyXyXuXwXwXeX1X,XXXq.O.9 2 6 < ; , 6 , =             ",
"= : 6 6 ; ; 3 3 1 % % 3 i @.e.>XXX2X<X<X<X<X<X<X<X<X2XXX>Xe.+.J 3 % % % 3 3 < ; , 6 , =             ",
"= ; , 2 3 b M N M z k T U *.*.Y K @.O.#.#.#.#.#.#.O.@.K Y *.*.U L l x M N B b r 4 6 , =             ",
"= - & b D L.R.R.Y.L.0.I U }.0X{.h.h.g d f d d f d g h.h.{.0X9X].I 0.T.U.R.R.I.8.m r 5 =             ",
"= % l M 8.I.R.E.R.L.D n m Q. Xz.s.l.l.s.s.d.d.s.s.l.l.s.h. X].m n Z J.Y.!.!.Y.J.N l % =             ",
"= = - & l N 9.L.L.7.B M C L P W.W.g.g.j.K.W.W.K.j.g.g.W.W.I L A M M S J.P.J.Z x r 5 = =             ",
"= + $ # j z B C C k # n U.~.(.(.).(.~.R.Y.Y.Y.Y.R.!./.).(.(.~.Y.C e j B C C n k e $ + =             ",
"    # j n M V C V k # k S I.~.~.~.R.U.J.8.D D 8.J.I.R.~.~.~.U.7.x # j M C V N M k #                 ",
"  P L L L F 7.C n k h k n M C C C S D C B n n M C D D C C C B n k j k n N S F L L L P               ",
"}.9X9X9X}.'.Q.I T b x M 8.8.S S S C C C C C C C C V C Z S S D 8.C x c v L Q.'.|.9X9X9X}.            ",
"0XsXaXaXaXsX9X|.].I n Z U.R.Y.I.P.J.H.H.H.H.H.H.H.H.J.L.P.Y.R.Y.8.n L ].|.9XsXaXaXaXsX0X            ",
"U U *.'.9X9X X].P L 0.R.(.~.R.R.R.R.R.R.R.R.R.R.R.R.R.R.R.R.R.R.I.J.L P U '.}.9X X*.U U J           ",
"<XqXqX;Xw.K G v b F R.(.(.).(.).).).(.~.!.!.!.!.~.(.).).(.R.R.R.Y.P.F v v G K =.XX<XrX1X=.1         ",
"[.[.[.e.+.J c M L.E.(._.).).).).).).).).).).).).).).).).(.R.R.R.R.R.Y.L.N x G O.e.[.[.e.J 1         ",
"      & r c n 7.R.).).).).)._.).).).).).).).).).).).).).(.R.Y.I.Y.R.Y.L.S n c b &                   ",
"        k n 8.U.(._.).).(.~.~.(.).).).).(.~.~.(.).).).).(.R.U.P.P.Y.U.L.J.8.M x                     ",
"        M S J.R.(._.).~.E.R.R.~.)._.)._.(.E.R.(.).).).).(.R.U.P.L.P.L.L.L.L.D M                     ",
"    k z C 8.U.R.R.~.(.~.R.Y.R.~.)._.)._.(.~.R.(.).).)._.(.R.Y.P.L.L.L.L.L.L.8.C n k                 ",
"  x x M 9.I.R.R.R.R.R.U.P.I.R.~.(.(.)._.(.R.R.(._._.(.(.~.R.P.9.H.L.L.L.L.L.P.J.C x j               ",
"k x M S J.P.I.Y.R.R.U.P.L.I.R.R.R.~.~.~.!.I.P.U.R.~.~.R.Y.P.8.C C 7.9.L.L.L.P.L.8.M j @             ",
"k x M S J.L.L.P.P.P.L.L.L.U.R.R.R.R.R.R.Y.P.L.L.P.Y.R.R.Y.P.8.C B C D J.P.L.8.S Z M j @             ",
"# j n S 9.L.L.L.L.L.L.L.L.P.P.P.P.Y.R.R.Y.P.L.L.L.P.P.P.P.L.8.C V C C Z S Z C M B M j @             ",
"    # h x n M M M M C D H.J.J.J.J.L.P.P.P.P.L.L.L.L.L.L.L.J.8.C M M M M M n k # # #                 ",
"            @ @ $ e l c n n n n n B S D 7.7.7.8.D S Z S C n n n l $ $ @ @ @                         ",
"                    1 * @ @ @ @ @ @ # j k k k k j # @ @ @ @ @ @ * 1                                 ",
"                                                                                                    ",
"                                                                                                    ",
"                                                                                                    "
};
