/* XPM */
static char *T_e_3[] = {
/* columns rows colors chars-per-pixel */
"50 50 221 2 ",
"   c None",
".  c #020301",
"X  c #15140F",
"o  c #1A0037",
"O  c #063431",
"+  c #0A3C39",
"@  c #383C38",
"#  c #33372F",
"$  c #29152C",
"%  c #4F2217",
"&  c #4A251C",
"*  c #54251B",
"=  c #55261B",
"-  c #7A143B",
";  c #5B2C23",
":  c #542C24",
">  c #4A352E",
",  c #57332C",
"<  c #4D3028",
"1  c #64342C",
"2  c #653628",
"3  c #6A3A32",
"4  c #6A3B37",
"5  c #723D37",
"6  c #531F1A",
"7  c #0C413D",
"8  c #19473C",
"9  c #2E4D34",
"0  c #4E473D",
"q  c #75423A",
"w  c #76463A",
"e  c #6D4436",
"r  c #756435",
"t  c #331548",
"y  c #4B1F52",
"u  c #751B45",
"i  c #6E1A43",
"p  c #51275B",
"a  c #683875",
"s  c #0E4742",
"d  c #144C47",
"f  c #13524D",
"g  c #175346",
"h  c #165B55",
"j  c #185B54",
"k  c #384C46",
"l  c #30544D",
"z  c #1A635B",
"x  c #27665A",
"c  c #366245",
"v  c #1E6B63",
"b  c #1C6760",
"n  c #1D7069",
"m  c #206E66",
"M  c #2B6D66",
"N  c #23746B",
"B  c #29766C",
"V  c #267A71",
"C  c #287E75",
"Z  c #3B6C74",
"A  c #4B5550",
"S  c #7C4A42",
"D  c #73574A",
"F  c #45615F",
"G  c #6F644C",
"H  c #547070",
"J  c #7C7369",
"K  c #797A79",
"L  c #6B6F6D",
"P  c #4D4A78",
"I  c #811B3F",
"U  c #845438",
"Y  c #8D683D",
"T  c #A96F3E",
"R  c #841D47",
"E  c #95214F",
"W  c #9A2250",
"Q  c #972653",
"!  c #8E2D4C",
"~  c #A22554",
"^  c #AC2B5A",
"/  c #A42A56",
"(  c #B22C5E",
")  c #A7315A",
"_  c #BB3464",
"`  c #B63C65",
"'  c #AD3660",
"]  c #C53C6B",
"[  c #C13568",
"{  c #834C45",
"}  c #884C49",
"|  c #895449",
" . c #965B4B",
".. c #935754",
"X. c #976947",
"o. c #986656",
"O. c #8D7050",
"+. c #AF7851",
"@. c #BE496C",
"#. c #8D746E",
"$. c #B27B72",
"%. c #A47565",
"&. c #C4426C",
"*. c #C5456F",
"=. c #CB4571",
"-. c #CD4B74",
";. c #C34D70",
":. c #D24F77",
">. c #CA5275",
",. c #C55273",
"<. c #D4557A",
"1. c #D45A7C",
"2. c #D8587D",
"3. c #2B847A",
"4. c #2B857B",
"5. c #318478",
"6. c #51827C",
"7. c #B98352",
"8. c #8F827D",
"9. c #B08970",
"0. c #C99159",
"q. c #DAA15D",
"w. c #D09A6F",
"e. c #D09A6F",
"r. c #DDA562",
"t. c #EBB470",
"y. c #651E91",
"u. c #682A95",
"i. c #7C2DA6",
"p. c #5A4E96",
"a. c #774B90",
"s. c #4A7190",
"d. c #6A6387",
"f. c #7500EE",
"g. c #7B00EB",
"h. c #8D38B6",
"j. c #DB5D81",
"k. c #D75D83",
"l. c #DC6384",
"z. c #DB6688",
"x. c #E36B8A",
"c. c #E06686",
"v. c #E6708E",
"b. c #E8718E",
"n. c #E57391",
"m. c #E97694",
"M. c #E37A99",
"N. c #EA7D9A",
"B. c #E77897",
"V. c #9033E3",
"C. c #8811E7",
"Z. c #A951DE",
"A. c #B76BD9",
"S. c #9359E0",
"D. c #855D9F",
"F. c #2F8B81",
"G. c #318E83",
"H. c #3A8F85",
"J. c #329186",
"K. c #349589",
"L. c #37998D",
"P. c #399B8E",
"I. c #39948B",
"U. c #3A9E91",
"Y. c #2C9085",
"T. c #3DA395",
"R. c #3EA897",
"E. c #4B908E",
"W. c #7B8987",
"Q. c #41AA99",
"!. c #45A696",
"~. c #45B29D",
"^. c #48B7A0",
"/. c #48B8A1",
"(. c #47B7A0",
"). c #858887",
"_. c #989797",
"`. c #8F8E8C",
"'. c #AD948B",
"]. c #AA9BB7",
"[. c #ABADB4",
"{. c #9D96B1",
"}. c #EB809D",
"|. c #D3AD8E",
" X c #ECB983",
".X c #EB84A2",
"XX c #EE8DAA",
"oX c #ED89A6",
"OX c #EE91AE",
"+X c #EF93B0",
"@X c #EF9AB7",
"#X c #F096B3",
"$X c #F099B6",
"%X c #F19CB9",
"&X c #F1A1BE",
"*X c #F9D39A",
"=X c #ECC69B",
"-X c #D8C8B0",
";X c #FFDCBE",
":X c #FAD3A5",
">X c #FEE7B9",
",X c #D3C29E",
"<X c #BC89D8",
"1X c #AFADCD",
"2X c #D8B1CE",
"3X c #F2A9C8",
"4X c #F5B6D8",
"5X c #F6BEE0",
"6X c #CB86D2",
"7X c #C7C6C6",
"8X c #D8D6DA",
"9X c #D2C6C8",
"0X c #F7D6C5",
"qX c #FFE2C1",
"wX c #FFEECA",
"eX c #FFEEC1",
"rX c #FFF1C9",
"tX c #F7C4E7",
"yX c #F8CCF2",
"uX c #EFEFEF",
"iX c #DFE0E0",
/* pixels */
"                        [ -.z..X%X4XtXtXtXtXtXyX4X.Xl.=._ / W                                       ",
"                      _ _ ^ / *.l.x.B.OX&X&X3X4X4X%X.Xn.j.=._ /                                     ",
"                    / _ ] _ ) ) ` 1.N.@X%X&X&X&X&X&X$XXXN.v.2.] ( ~                                 ",
"                &.*.-.l.n.m.N..XXX$X&X3X3X3X3X3X&X&X%XXX}.m.2.] ( ~ W W                             ",
"            ' ` &.2.x.N.oX#X&X3X3X3X4XtXyXyXtX3X%X%X@X.XN.v.2.] ( ~ ~ ~ ~ W E                       ",
"        u R Q ) &.:.j.v.}.oX@X3X4X5X5X5X5X5X4X3XOX.XB.b.b.b.j.] ( ~ ^ ] _ ^ ~ W R                   ",
"    R E ^ ` :.2.2.-.&.-.2.j.c.N.XXXXXXXXXXXXoX.XB.x.l.2.2.2.:.] _ ` ;.j.:.[ ^ W R i i               ",
"i u E ^ &.2.x.m.B.n.l.2.:.-.-.:.2.2.1.1.1.1.1.1.2.-.&.] ] =.2.l.z.v.n.x.j.=._ ^ E R u i             ",
"i u E ^ &.2.x.N.OX$X#XXXN.z.2.:.:.2.1.1.1.1.1.1.1.k.k.z.n..XXX#X#XXXN.v.l.1.-.[ ^ W R i i           ",
"R E ^ ( ^ @.1.n..XXX@X@X@XOXXXXXXXXXXXXXXXXXXXXXXX#X$X$X%X&X%X@XoXN.v.l.2.=._ ^ ( ^ W R u i         ",
"( _ =.-.&.&.&.=.=.j.n.N..XXX@X@XOXOXOXOX@X@X@X@X@X@X@XOXXX.XN.B.v.l.2.=._ ^ ^ ( _ _ ^ W R i         ",
"[ =.j.x.x.c.j.2.-.-.=.2.l.x.m.m.m.m.m.m.m.m.m.m.m.m.m.m.v.l.2.-.=.] =.-.-.;.-.-.=._ ^ E R i         ",
"&.-.c.b.x.m.}..XN.z.2.=.] *.>.>.>.>.>.>.>.>.>.>.>.>.>.>.-.&.=.2.j.j.c.c.l.2.2.1.=._ ^ W R i         ",
"/ ) *.1.x.b.n..X#X@X@X.XN.n.N.N.N.N.N.N.N.N.N.N.N.N.N.N.N.M..XOX$X#X.Xv.l.1.-.] ( ~ R u - -         ",
"- - R R / @.2.z.n.N.oX@X@X%X%X%X%X%X%X%X%X%X%X%X%X%X%X%X%X%X#XXX.Xm.j.&.] ` / R - - - -             ",
"6 1 | ..| } ) / / ` ;.1.l.z.n.n.n.n.n.n.n.n.n.n.n.n.n.n.n.n.x.l.2.] / R - I ! { } { 1 *             ",
"1 q o...q S ..| 5 q } } ) ` @.*.@.@.*.;.,.,.,.,.;.@.@.*.*.@.@.) ! } w 3 5 { w 4 S { 1 %             ",
"| | o.| q q { q 2 2 q | ....| q 4 | o.%.$.$.$.$.%.S 5 { { 5 5 { { q 3 2 q { w 4 w S 1 %             ",
"{ S 4 q { S 4 | 7.0.+.o.S 4 , & & q  . .o.o.o.o.| w 4 1 : & : S o.+.0.0.+.| q 4 4 1 ; %             ",
"4 4 3 q { S 4 X.q.+.U 8.[.H X . X | e.w.e.e.e.e.w.w.O.$ . . A [._.U T q.0.| q 4 4 1 ; %             ",
"4 4 4 5 S q 1 X.q.0.X.'.[.d.t o t '.;XqX;X;X;X;XqXqX|.p o o P [._.o.7.r.7.{ 4 4 4 1 ; %             ",
"1 1 1 4 3 ; * U 0.t.t.,X1XS.g.f.C.6XqXqXqXqXqXqXqXqX2XV.f.g.V.1X-X=X Xr.X., > 1 1 2 = %             ",
"% * 1 1 1 ; * 3 X.9.|.-X9X<XZ.Z.A.2XwXrXwXwXwXwXwXrX9XA.Z.Z.<X2X-X|.e.X.w > , 1 ; %                 ",
"% = 1 1 * % * & : e X.%.'.|.;X>XrXrXrXwXwXwXwXwXwXwXrXrXqX>X=X'.9.X.w : & * ; 1 ; %                 ",
"% * 1 1 * % % & # @ 9 @ 0 D o.%.9.|.=X*X*X*X*X*X*X=X|.9.9.o.D 0 0 k k A k 9 > ; * %                 ",
"; ; ; = % & # l B M l H K `.`.#.J G r Y X.X.X.X.X.U D G #.`.`.).6.5.J.L.K.4.x k >                   ",
"4 1 * & # l N J.Q.!.E.H K [.8X].a.a.a p y p p y p a a.a.{.8X7X).H H.L.T.U.K.4.N                     ",
"4 1 * # d n K.Q.(./.(.P.6.`.[.D.y.h.h.u.y.i.i.y.y.h.h.y.a.]._.H B G.L.K.G.V v z                     ",
"= *     z V J.U.!.~.~.R.K.H L H s.p.u.p.s.s.s.Z P u.u.s.H L H H.4.v m V N m f +                     ",
"        7 j 4.K.K.U.T.J.V x x B J.E.E.Q.~.~.R.P.I.E.E.Q.Q.!.!.T.4.h h m N m d O                     ",
"        O d m N z z z f 7 s h N J.U.R.~.(.(.~.Q.T.T.T.T.Q.R.T.K.M 9 g m 4.4.v f                     ",
"        O s v N v m v f O 7 f h z C J.K.K.K.G.C N N C G.K.J.3.z 9 9 9 m F.P.4.M F A                 ",
"        O j G.U.P.P.G.z O O 7 h v N N N N N N N v z h h h h h f 8 9 9 A F F W.`.).K                 ",
"        O l K ).).).W.F 8 f m m N 4.G.J.J.J.J.G.G.G.4.N v m z h s O k L ).`._.`.).K                 ",
"        K _.9XuXuXuX8X[.W.H N v N 3.G.L.T.T.U.K.K.K.F.V N N N N h + k A L L L G A >                 ",
"        _.[.7X8XiXiXiX7X_.E.B N N N C F.K.U.T.T.T.T.U.K.4.V C G.V j d @ @ 0 | X.w ,                 ",
"        `.8.J J J J J #.).E.J.J.K.U.T.T.T.T.Q.~.~.Q.T.T.U.K.K.J.4.V v j A |  . .e >                 ",
"        A O.q. X*X:X XO.9 x J.U.T.T.T.T.T.~.^./.^.^.~.Q.T.T.U.K.J.J.4.N l @ > > >                   ",
"    f g 9 0 o.+.7.+.X.G c 5.T.T.T.T.T.T.T.~.^.^.^.^././.~.T.P.K.J.J.4.V b h                         ",
"  s h v V M k k k A A Z I.T.T.U.U.U.T.Q.Q.~.^.^.^.^./.^.~.T.P.K.J.J.K.J.V z f                       ",
"+ f N 4.4.4.3.4.J.K.K.L.T.T.T.K.J.P.T.~.^./.^.^.^.^.^.^.~.T.U.L.K.J.J.J.4.m d O                     ",
"z m 4.4.N V G.K.J.K.L.U.T.T.T.L.K.P.T.~.^.^.^.^.^.^./.^.~.T.T.T.P.K.J.J.F.C j s                     ",
"4.4.3.C 4.4.G.J.J.L.T.T.T.T.T.L.K.P.T.~.^./.^.^.^.^.^.^.~.T.T.T.P.K.J.J.K.G.V b                     ",
"K.4.N V F.K.J.J.J.L.T.T.T.U.K.4.4.J.T.Q.Q.~.^.^.^./././.~.T.T.T.P.K.J.J.J.G.4.m f O                 ",
"v v m V F.J.J.J.J.K.K.U.T.P.G.V N G.T.T.T.~././.~.Q.Q.Q.Q.T.T.T.P.K.J.J.J.G.4.v d O                 ",
"    h v 4.K.J.J.J.J.J.K.K.4.V N N G.T.T.T.T.Q.Q.T.T.T.T.T.T.T.T.J.C 4.G.K.G.4.m d O                 ",
"        z v N 4.G.J.J.J.G.C N v N G.T.T.T.T.T.T.T.T.T.T.T.T.U.K.4.N N V 4.F.v s O                   ",
"            + d h v N N N N N m N 4.K.U.T.T.T.T.T.T.T.T.T.T.U.J.4.N m m j s +                       ",
"                    + O + s h z N N N N V F.K.K.K.K.G.C N N m z d 7 7                               ",
"                                                                                                    "
};
