/* XPM */
static char *T_e_2[] = {
/* columns rows colors chars-per-pixel */
"50 50 228 2 ",
"   c None",
".  c #0A0906",
"X  c #17022D",
"o  c #083936",
"O  c #39352C",
"+  c #281A22",
"@  c #4E2116",
"#  c #4D241B",
"$  c #52251B",
"%  c #56291F",
"&  c #58271B",
"*  c #5B1B22",
"=  c #76143D",
"-  c #4A2622",
";  c #5B2C22",
":  c #552B23",
">  c #4B332D",
",  c #5E3127",
"<  c #59332D",
"1  c #593832",
"2  c #64352C",
"3  c #64352A",
"4  c #6A3A31",
"5  c #683B34",
"6  c #753639",
"7  c #672C2C",
"8  c #501F14",
"9  c #0C423D",
"0  c #1A4A3A",
"q  c #28453B",
"w  c #334B31",
"e  c #475131",
"r  c #6B4236",
"t  c #75433B",
"y  c #764539",
"u  c #795239",
"i  c #696138",
"p  c #361D42",
"a  c #4D1C5D",
"s  c #721A44",
"d  c #7D1C47",
"f  c #6E1B44",
"g  c #59236A",
"h  c #5E2F53",
"j  c #0D4641",
"k  c #124C47",
"l  c #13534D",
"z  c #1A554E",
"x  c #165B54",
"c  c #175A54",
"v  c #345448",
"b  c #3C5954",
"n  c #2C4F48",
"m  c #1B635B",
"M  c #27665D",
"N  c #2F6149",
"B  c #1E6A63",
"V  c #1C6760",
"C  c #1F726A",
"Z  c #206E66",
"A  c #22736B",
"S  c #25786E",
"D  c #267B72",
"F  c #297E74",
"G  c #347169",
"H  c #3F517C",
"J  c #4F4F4C",
"K  c #7E4B42",
"L  c #7F4041",
"P  c #75584B",
"I  c #7B6F4C",
"U  c #477B77",
"Y  c #596C6B",
"T  c #787979",
"R  c #6D6E6C",
"E  c #4F595D",
"W  c #845C3C",
"Q  c #814D35",
"!  c #98643D",
"~  c #871B47",
"^  c #971F4C",
"/  c #96214E",
"(  c #9C2251",
")  c #9B2955",
"_  c #8A3249",
"`  c #A22454",
"'  c #AC2A5A",
"]  c #A72858",
"[  c #B12C5D",
"{  c #AC335D",
"}  c #B0335F",
"|  c #BC3465",
" . c #B63863",
".. c #B43261",
"X. c #C43B6B",
"o. c #C53B6B",
"O. c #874648",
"+. c #865548",
"@. c #965755",
"#. c #93594B",
"$. c #A15D5F",
"%. c #96684A",
"&. c #996656",
"*. c #8D6851",
"=. c #AC7550",
"-. c #BD436B",
";. c #B44969",
":. c #937969",
">. c #A96B67",
",. c #C5436D",
"<. c #C8426F",
"1. c #CB4572",
"2. c #CB4C73",
"3. c #C24C74",
"4. c #D14C76",
"5. c #CB5175",
"6. c #C35379",
"7. c #D3547B",
"8. c #D75D7E",
"9. c #D95B7F",
"0. c #2A8177",
"q. c #2B8379",
"w. c #2E887E",
"e. c #37877A",
"r. c #33806B",
"t. c #4A837C",
"y. c #BA8151",
"u. c #B38E6D",
"i. c #C99156",
"p. c #DBA25E",
"a. c #C89267",
"s. c #DEA66A",
"d. c #E7B06F",
"f. c #682895",
"g. c #753590",
"h. c #6B359B",
"j. c #3E7C89",
"k. c #584793",
"l. c #774B96",
"z. c #51708B",
"x. c #7400E9",
"c. c #7A01E6",
"v. c #8738B2",
"b. c #D65C81",
"n. c #CF5481",
"m. c #D46485",
"M. c #DC6284",
"N. c #DC6A8D",
"B. c #D57395",
"V. c #E46D8C",
"C. c #E06686",
"Z. c #E7718F",
"A. c #E67392",
"S. c #EA7D9A",
"D. c #E77896",
"F. c #E26F92",
"G. c #8C28E1",
"H. c #AA53DE",
"J. c #B86CD9",
"K. c #9259DE",
"L. c #9678AF",
"P. c #2F8B80",
"I. c #318E83",
"U. c #398185",
"Y. c #329186",
"T. c #349589",
"R. c #37998D",
"E. c #389B8E",
"W. c #39968A",
"Q. c #3A9D91",
"!. c #379D90",
"~. c #3DA295",
"^. c #3EA697",
"/. c #498C84",
"(. c #4E928C",
"). c #43AC9A",
"_. c #43A898",
"`. c #46B39D",
"'. c #48B49F",
"]. c #48B7A0",
"[. c #48B8A1",
"{. c #47B6A0",
"}. c #6F8F88",
"|. c #888989",
" X c #989898",
".X c #90918F",
"XX c #A7948D",
"oX c #9B99A5",
"OX c #B9B7B6",
"+X c #A7AAB0",
"@X c #A68DBA",
"#X c #EB829F",
"$X c #CFAB8C",
"%X c #E9BC8B",
"&X c #EC85A2",
"*X c #ED89A6",
"=X c #ED8DAB",
"-X c #E486AB",
";X c #EF95B2",
":X c #F199B6",
">X c #F19DBA",
",X c #F096B3",
"<X c #EF92AE",
"1X c #F1A0BD",
"2X c #F6CC92",
"3X c #E4C19C",
"4X c #D8C8B0",
"5X c #FEDBBC",
"6X c #F8DBAC",
"7X c #FEE5B7",
"8X c #D1C19D",
"9X c #BD8AD8",
"0X c #AEADCC",
"qX c #D8B1CE",
"wX c #F3AAC9",
"eX c #F5B7D8",
"rX c #F6BEE1",
"tX c #CA86D0",
"yX c #D3CCD3",
"uX c #F3D1C7",
"iX c #FFE2C0",
"pX c #FFEECA",
"aX c #FFECC0",
"sX c #FFF0C9",
"dX c #FFF0C7",
"fX c #F8CBEC",
"gX c #FEFEFE",
"hX c #F2E8F1",
/* pixels */
"                                   .-.m.B.B.B.3...] (                                               ",
"                        ] | <.1.n.-XwXfXhXhXfXeX-Xn.| ' `                                           ",
"                        X.1.8.S.;XwXeXeXrXrXfXfXeX=XC.4.X.' `                                       ",
"                      ..| ' (  .5.b.Z.=X>X1XwXeXeX>X=XS.V.7.X.[ `                                   ",
"                  ....X.2.2.-.-.6.N.*X,X>X1X>X>X1X1X>X=X#XZ.9.X.[ ` (                               ",
"              ,.,.2.9.V.S.&X=X<X:X>XwXwXeXeXeXwX1X1X>X=X#XA.9.X.[ ` ( ( (                           ",
"          ~ ) { ,.8.V.S.*X;XwXeXeXeXrXfXfXfXfXwX>X,X*XS.Z.V.9.X.[ ` ` [ ' ( (                       ",
"      d / ) }  .,.2.5.M.A.D.S.;XwXwXwXwXwXwXwX,X*XS.A.V.V.V.9.X.[ ` ..2.,...' ( ~                   ",
"f d / ]  .2.M.V.C.8.2.,.1.4.b.V.A.A.A.A.A.A.A.A.V.M.7.1.o.<.<.,.2.5.b.C.7.X.[ ( ~ s s s             ",
"s d / ' ,.7.V.D.&X&X#XA.V.8.2.<.<.2.2.5.2.5.5.5.2.,.X.,.7.M.A.S.&X&XS.V.M.7.<.| ' / d s             ",
"s ~ ( '  .5.C.#X;X>X>X;X*XS.A.A.A.A.A.A.A.A.A.A.A.#X&X&X=X:X>X>X;X&XS.V.M.7.<.| ' ( ~ s s s         ",
"` ' | | {  .2.9.M.A.&X=X;X:X:X>X:X:X:X:X:X:X:X:X:X>X>X>X>X:X<X&XS.V.M.7.,.| ' ] ..| ' / d s         ",
"X.X.7.M.M.7.1.o.X.2.b.C.V.Z.#X&X#X#X#X#X#X#X#X#X#X#X#X#XS.V.C.b.7.4.1.X.| }  .X.X.| ' / d s         ",
"X.2.C.Z.V.Z.D.A.N.7.<.<.2.7.8.9.8.8.8.8.8.8.8.8.8.8.8.9.8.2.2.1.1.1.7.M.M.8.b.8.1.| ' ( ~ s         ",
"..-.7.M.V.Z.S.*X;X=XS.N.b.b.m.m.m.m.m.m.m.m.m.m.m.m.m.m.b.b.N.&X*X*XS.Z.C.9.7.2.X.' ( ~ d =         ",
"~ ~ / ]  .5.M.A.&X=X,X:X:X:X:X:X:X:X:X:X:X:X:X:X:X:X:X:X:X:X:X,X<X*XF.7.4.1.} ^ ~ ~ = = =           ",
"* 7 6 _ O.) { .. .3.b.N.A.S.#X#X#X#X#X#X#X#X#X#X#X&X#X#X&X&XS.V.b.4.} ^ ~ ~ _ _ O.O.6 * -           ",
"@ , K +.y y O._ 6 O.$.;.{ -.5.5.5.5.5.5.5.5.5.5.5.5.5.5.5.5.,.} ) _ 6 7 L @.+.y #.&.K , % #         ",
"@ ; K K 4 y +.y ; 4 +.O.6 6 6 @.$.>.>.>.$.@.@.@.$.$.@.O.L O.O.6 4 4 , ; y +.y 4 +.&.@.K 3 @         ",
"@ % 2 4 4 y +.&.=.%.y 2 , , 2 y +.&.>.&.+.y y +.+.y 4 % % 2 5 r +.=.y.=.#.y y +.y y K K 2 @         ",
"@ % 2 4 4 y +.=.p.=.Q :.+XY . . + +.a.a.a.a.a.a.a.a.%.+ . . J oXXXW =.p.=.y y +.y 4 4 2 ; @         ",
"@ % 2 4 4 4 K =.p.i.! XX+Xz.X X p XX5X5X5X5X5X5X5X5X$Xh X X E +XXX%.y.p.=.4 5 K y 4 4 2 ; % -       ",
"@ % ; 2 2 , < +.p.d.d.8X0XK.c.x.G.tXiX7XiXiXiXiXiXiXqXG.x.x.G.0X4X3X%Xp.! & ; 4 4 2 2 2 2 2 % @     ",
"    @ % 2 , < r %.u.$X4XyX9XH.H.J.qXpXdXpXpXpXpXpXpXuXJ.H.H.9XqX4X%Xa.%.y % % , 2 2 ; % , 2 % @     ",
"    @ % 2 2 % # - r +.>.u.$X6X7XdXsXpXpXpXpXpXpXpXpXsXsXaX6X3XXX>.%.y < - % # % ; 2 ; % , 2 % @     ",
"    @ % & > w v b b v v J P *.:.u.$X%X2X2X2X2X2X2X%X$Xu.:.*.P J w q q O O # 8 % ; 2 ; % 2 2 % @     ",
"      O v M 0.R.!.R.w./.|. X X|.T P u W W W W W W u P R |. X X|.R E G 0.Z q O # % ; ; ; ; % %       ",
"        S D I.E.~.R.Y.U T +XyX@Xl.g.g.g a g g a g g.g.l.L.yXOXT Y (._.`.~.q.M q O % , 2 ; @         ",
"        x m S q.Y.R.I.F G }.oXl.f.v.v.f.f.h.v.f.f.v.v.f.l.oX.X/.E.`.[.`.).Q.D z O % , 2 ; @         ",
"        o k V S S B m D W.t.Y U j.k.k.H G U.(.(.z.k.k.j.U Y Y e.~.`.`.~.Q.Y.D B     $ %             ",
"        o k B S Z m z S Q.).).`.`._.Q.Q.~.).`.{.{.`._.R.F c c B F R.R.I.I.w.x o                     ",
"        c B P.P.S N w N q.R.Q.~.Q.E.R.R.E._.`.`.).~.R.P.S x j o 9 x x x V B l o                     ",
"    Y Y U t./.e.G v w q l B F 0.F S B B S 0.q.q.q.w.D m l k 9 o k S D D 0.D c o                     ",
"    T |. X.XT R R J q 0 l x x c x m B S D D D D D D D S m l o o z U /.(.(./.M o                     ",
"    E Y T |..X|.T b o j x B Z Z S w.E.Q.E.E.R.R.R.R.w.S Z S M b R  XOXOXOX+XT b                     ",
"    > r P P J J J n j m F S S F I.R.R.R.E.Q.~.E.Y.q.F 0.0.q.t.|.OXhXgXgXgXhXOX.X                    ",
"    > r #.%.+.J n z m D I.Y.Y.E.~.Q.Q.~.^.~.~.Q.R.Y.Y.E.R.R.(. X X.X.X.X.X|..X X                    ",
"    > 1 5 r r J M S q.R.Q.~.~.~.~.).`.{.{.`.).^.~.~.~.~.~.Q.e.b I u.$X$X$Xu.:.R                     ",
"            z c Z 0.Y.E.~.~.~.).`.{.{.{.{.[.`.).~.~.~.~.^.~.r.w i u.s.d.s.i.I w 0 l                 ",
"            x B w.R.Q.~.~.~.~.).{.[.{.{.{.[.`.).~.~.~.~.~.~.~.E.G e e e e w N M m c                 ",
"            Z D Y.E.~.~.~.~.~.).{.[.{.{.{.{.{.{.`.~.Q.R.R.Q.~.~.E.I.w.w.F S F w.F S                 ",
"        l x S w.Q.~.~.~.~.~.~.).{.[.{.{.{.{.[.[.`._.Q.R.R.Q.~.~.E.Y.Y.Y.Y.I.F S q.P.Z x             ",
"        x B w.R.~.~.Q.Q.~.~.~.).{.[.{.{.{.{.[.[.`._.Q.R.R.Q.~.~.E.Y.Y.Y.Y.Y.q.D q.q.F S B           ",
"        S D I.R.E.R.Y.R.~.~.~.).{.[.[.{.{.{.`.`.).~.E.P.P.R.Q.~.E.Y.Y.Y.Y.Y.Y.I.F S q.P.B c         ",
"      m Z D I.Y.Y.Y.Y.R.~.~.~.).).).).`.[.[.`._.~.~.R.S S P.R.~.Q.R.Y.Y.Y.Y.Y.I.F S S S c j         ",
"    l x B F I.R.Y.w.q.I.~.~.~.~.~.~.~.).).).).~.~.~.R.D S D w.R.R.Y.Y.Y.Y.Y.R.I.D m k 9 o           ",
"      x x S P.P.F S S q.R.Q.~.~.~.~.~.~.~.~.~.~.~.~.R.D B Z D I.Y.Y.Y.Y.w.D S V l o o               ",
"          l k j j l Z 0.I.E.~.~.~.~.~.~.~.~.~.~.Q.R.P.S Z Z S S D D S m l j j                       ",
"                  o 9 9 k m S D F P.R.R.R.R.I.0.S S S S B c k 9 9                                   ",
"                                                                                                    "
};
