/* XPM */
static char *T_front2[] = {
/* columns rows colors chars-per-pixel */
"50 50 215 2 ",
"   c None",
".  c #000200",
"X  c #393716",
"o  c #333014",
"O  c #08322C",
"+  c #093C38",
"@  c #0F3834",
"#  c #3A352A",
"$  c #333A36",
"%  c #2B362C",
"&  c #45340B",
"*  c #48370E",
"=  c #4C3A12",
"-  c #443818",
";  c #503E15",
":  c #4D3527",
">  c #67352C",
",  c #6C3831",
"<  c #09423D",
"1  c #1C453E",
"2  c #364328",
"3  c #274D3C",
"4  c #5A471E",
"5  c #59461D",
"6  c #61481E",
"7  c #594623",
"8  c #5D522C",
"9  c #554B2F",
"0  c #624B26",
"q  c #6A552B",
"w  c #6B5B35",
"e  c #6F5336",
"r  c #766237",
"t  c #7A6336",
"y  c #6B613A",
"u  c #38006D",
"i  c #003C41",
"p  c #024749",
"a  c #114541",
"s  c #144A45",
"d  c #174D47",
"f  c #17514B",
"g  c #18534D",
"h  c #004D52",
"j  c #014E58",
"k  c #005558",
"l  c #1C5B54",
"z  c #1F5E58",
"x  c #1A5550",
"c  c #25554B",
"v  c #2E544D",
"b  c #1D615B",
"n  c #21645D",
"m  c #36635A",
"M  c #015D64",
"N  c #025F68",
"B  c #00696D",
"V  c #006368",
"C  c #016D73",
"Z  c #026F7A",
"A  c #01747A",
"S  c #08737A",
"D  c #266C64",
"F  c #296E67",
"G  c #286F68",
"H  c #236760",
"J  c #2A746C",
"K  c #28766F",
"L  c #2E7C73",
"P  c #307E76",
"I  c #3B7B74",
"U  c #3A6C67",
"Y  c #485654",
"T  c #6B5148",
"R  c #6E524B",
"E  c #4A625B",
"W  c #54694E",
"Q  c #7B714A",
"!  c #72684B",
"~  c #7E5D64",
"^  c #53716C",
"/  c #6A7876",
"(  c #7D7A77",
")  c #6B6564",
"_  c #BA0816",
"`  c #CE0C2C",
"'  c #886B3D",
"]  c #915734",
"[  c #9F3A4D",
"{  c #B03047",
"}  c #D72E49",
"|  c #ED3348",
" . c #8E5657",
".. c #867247",
"X. c #967748",
"o. c #836851",
"O. c #8E6E4E",
"+. c #AB7853",
"@. c #8B6D71",
"#. c #B5515E",
"$. c #32847B",
"%. c #38847B",
"&. c #2F8077",
"*. c #72807F",
"=. c #92865C",
"-. c #BB8955",
";. c #AA8250",
":. c #9D8E6B",
">. c #AB8361",
",. c #B28A6F",
"<. c #CE9856",
"1. c #C88D5A",
"2. c #D6A15C",
"3. c #DBA775",
"4. c #E0AC6D",
"5. c #ECB67B",
"6. c #CC9A69",
"7. c #643686",
"8. c #017B84",
"9. c #0C7A84",
"0. c #117D84",
"q. c #7900F0",
"w. c #922EE6",
"e. c #02838C",
"r. c #08858F",
"t. c #088995",
"y. c #178C98",
"u. c #07919D",
"i. c #158A96",
"p. c #378B82",
"a. c #388E84",
"s. c #3A9086",
"d. c #3D958A",
"f. c #3F988D",
"g. c #37998D",
"h. c #3F9C90",
"j. c #0C95A3",
"k. c #0D97A5",
"l. c #1293A3",
"z. c #1D9BAE",
"x. c #1797A7",
"c. c #1A9DB0",
"v. c #2397A7",
"b. c #259EB1",
"n. c #23A1B5",
"m. c #2DA9BE",
"M. c #2AA4B9",
"N. c #38ACBB",
"B. c #35A9B9",
"V. c #23A2AE",
"C. c #518980",
"Z. c #409B8F",
"A. c #429D92",
"S. c #55998C",
"D. c #45A295",
"F. c #4BAC9A",
"G. c #47A797",
"H. c #4FB39E",
"J. c #50B49F",
"K. c #50B6A0",
"L. c #758584",
"P. c #34ACC1",
"I. c #39AFC4",
"U. c #3DB2C7",
"Y. c #2EAAC0",
"T. c #45B6C9",
"R. c #4BBACD",
"E. c #44B5C6",
"W. c #53BECD",
"Q. c #51BED0",
"!. c #5AC1CD",
"~. c #5CC4D1",
"^. c #55C0D1",
"/. c #62C6D2",
"(. c #6CCCD5",
"). c #65C8D4",
"_. c #72CFD6",
"`. c #74D0D7",
"'. c #7AD2D7",
"]. c #73D0D8",
"[. c #61C4C8",
"{. c #8B8C8B",
"}. c #B4988B",
"|. c #9296AD",
" X c #A4A2A4",
".X c #B6B8B8",
"XX c #B4B1AD",
"oX c #DDAC83",
"OX c #CFAB8A",
"+X c #D2A6AC",
"@X c #EEBD8D",
"#X c #EAC79B",
"$X c #EACCAD",
"%X c #FEE3BF",
"&X c #C2C4BB",
"*X c #A490D6",
"=X c #D49ED3",
"-X c #DDB0D0",
";X c #E0ACCE",
":X c #99DCCE",
">X c #87D6D3",
",X c #94DAD2",
"<X c #8CD5CD",
"1X c #A4DFCE",
"2X c #AAE1CB",
"3X c #C8C6C6",
"4X c #D7D7D7",
"5X c #FCDDC4",
"6X c #E4C9C9",
"7X c #CDE7DD",
"8X c #FFE3C3",
"9X c #FEEAC4",
"0X c #FFEDC8",
"qX c #E5E4E5",
"wX c #F4F4F4",
/* pixels */
"                        u.j.b.E.~.'.<X1X7X7X7X7X,X~.V.t.8.C                                         ",
"                        u.e.A 9.v.B.I.W.<X1X1X1X2X<X!.P.z.t.8.C                                     ",
"                                9.y.m.W.(.'.'.>X,X<X_.~.R.I.M.u.e.A                                 ",
"                    8.e.l.x.i.v.N.Q./.(.].].].].'.'.'._.).^.T.m.k.e.A B                             ",
"              j.j.j.c.m.T.Q.~./.(.(.].>X<X,X,X<X'.'.'._.).^.T.m.k.e.A B B B B                       ",
"          < k C t.k.P.R.^.).].>X,X:X:X:X2X2X2X:X>X].(.~.R.T.T.m.k.e.A C A A C B B                   ",
"      < k V C 8.e.t.t.x.m.T.R.!.'.>X>X>X>X>X>X'.(.~.R.T.U.U.U.m.k.e.A A i.l.t.8.C V p               ",
"O < k C e.j.M.P.P.M.l.u.t.i.z.M.I.T.T.T.T.T.T.T.U.P.M.z.j.j.j.u.r.r.x.b.P.m.x.t.A V j p +           ",
"p h M A t.k.Y.T.^.~.~.W.E.M.l.t.u.j.j.l.l.l.l.l.l.l.t.t.t.l.B.T.W.W.!.W.T.P.n.k.u.8.M h h h         ",
"i p h V 8.j.M.T./._._.(.).~.R.T.T.T.T.T.T.T.T.T.T.R.!.~.~./._.'.].(.~.R.U.P.M.x.t.A M j h h + +     ",
"V B A 9.9.9.i.x.b.m.R.~./.(._._._._._._._._._._._._._._._._.(./.~.R.U.M.z.i.e.A B B C C M j h h     ",
"u.j.M.m.m.M.x.i.t.i.x.v.M.I.R.W.Q.Q.W.Q.Q.Q.W.W.W.W.W.Q.W.R.I.m.n.z.l.i.r.9.S 9.t.j.u.e.B k h h     ",
"u.k.m.U.U.T.R.R.T.B.y.r.r.i.x.z.z.z.z.z.z.z.z.z.z.z.z.z.z.z.l.l.k.z.x.v.M.M.n.M.M.z.j.e.B k h h     ",
"8.e.l.M.P.T.T.W.(.(.~.R.N.B.N.N.N.N.N.N.N.N.N.N.N.N.N.N.N.m.m.E.!.).).~.T.P.n.c.k.u.e.C M j p p     ",
"p h h M S i.v.m.T.W./.(._.].]._._._._._.].].].].].].].].].]._._.(./.W.E.V.j.j.t.A B M k p p         ",
"o 7 ! Q ! W G S S 0.y.v.M.m.E.T.T.T.T.T.T.T.T.T.T.T.T.T.T.T.T.I.m.M.x.r.C M N b W ! Q ! 7 o         ",
"& 4 ....r w Q Q 8 8 y W D S r.i.i.y.y.y.y.y.y.y.y.y.y.y.y.i.i.r.S D W y 8 8 Q Q w r ....4 &         ",
"* 7 ....w q t t 0 6 q r r w 8 8 y Q =.:.:.:.:.=...Q =.=.Q y 8 8 w r r q 6 0 t t q w ....7 *         ",
"0 q ....q q r X.-.1.+.+.o.w - o - 7 ' X.X.;.;.X.X.X.X.' 7 - o - w o.+.+.1.-.X.r q q ....q 0         ",
"5 0 r t q q r X.2.<.] o. X|.$ . . # >.oXoX3.3.3.3.oXoX>.# . . $ |. Xo.] <.2.X.r q q t r 0 5         ",
"& ; q q 4 4 q ' <.2.-.>.XX|.7.u u 7.+X8X8X5X5X5X%X8X8X+X7.u u 7.|..X,.-.2.<.' q 4 4 q q ; &         ",
"& = 4 4 = = 5 t -.4.5.#X&X*Xw.q.q.w.;X9X9X8X8X8X8X9X9X;Xw.q.q.w.*X3X$X@X4.-.t 5 * = 4 4 = &         ",
"& = 4 4 = = ; 0 e o.-.oX$X6X-X=X=X-X5X9X0X0X0X0X9X0X0X5X-X=X=X-X6X$XoX-.o.e 0 7 = = 4 4 = &         ",
"& = 4 4 = = 7 7 : : 9 e R O.OX#X%X%X9X9X9X9X9X9X9X9X9X9X%X%X#XOXO.R e 9 : : 7 7 = = 4 4 = &         ",
"& = 4 4 = 2 3 c c d @ $ Y T T T T o.>.6.4.4.4.4.4.4.6.>.o.T T T T Y $ @ d c c 3 2 = 4 4 = &         ",
"& & - 2 m J %.s.a.$.J I L. X3X3X}.@.R , > > > > > > , R @.}.3X3X XL.I J $.p.a.%.J m 9 7 = &         ",
"& X 3 b &.f.F.F.D.f.p.I E / .X+X} ` | | _ _ ` ` _ _ | | ` } +X.X/ E I p.f.D.F.D.f.$.b 3 X &         ",
"& X 2 c G $.d.A.A.s.L D l m / @. .{ } } { [ #.#.[ { } } {  .@./ m l D L s.A.A.d.$.G c 2 X &         ",
"& & o % 1 l J $.$.J z z J %.^ C.F.S.@.~ C.g.g.g.g.%.~ @.S.F.C.^ %.J z z J $.$.J l 1 % o & &         ",
"  o O + s l n D G l + s P D.H.K.J.H.F.G.A.d.d.d.d.h.G.F.H.K.K.H.D.P s + l D D n l s + O o           ",
"    a g D K J D G z < + l J s.Z.Z.Z.d.a.P J D D J P a.d.Z.A.A.s.J l + < z G D J K D g a             ",
"( ( / / ^ ^ %.L n g d f z n n n n H J J G D H n D G J J H n n n n z f d g n L %.^ ^ / / ( (         ",
"3X4XqXqX4X.X{./ ) Y c b L p.$.$.$.P J D G G G G G G G J P $.$.$.p.L b c Y ) / {..X4XqXqX4X3X        ",
"3X4XqXwXwXwX4X+X X*.m D a.D.A.A.d.a.a.a.a.a.a.a.a.a.a.a.a.d.A.A.A.p.D m *. X+X4XwXwXwXqX4X3X        ",
"( ( ( {..X.X X{.) E I f.F.F.G.D.D.D.D.D.A.A.A.A.A.A.D.D.D.D.A.A.A.A.s.I E ) {. X.X.X{.( ( ) T       ",
"8X8X8X$X:.) E Y v m Z.F.H.H.H.H.H.H.H.F.G.D.D.D.D.G.F.H.J.F.D.A.A.A.d.%.m v Y E ) :.$X9X8XOX! :     ",
"}.}.}.,.+.! v b $.A.F.J.H.H.H.H.H.H.H.H.H.H.H.H.H.H.H.H.H.F.D.A.A.A.A.A.d.&.b v ! +.,.}.}.:.T :     ",
"      # $ v c J d.F.H.H.H.H.H.H.H.H.H.H.H.H.H.H.H.H.H.H.H.F.D.A.d.f.A.A.d.$.D c v $ #               ",
"        f l J a.F.J.J.H.H.H.F.F.H.H.H.H.H.H.F.F.H.H.H.H.H.F.D.Z.s.s.A.A.d.p.$.J z f                 ",
"        n G $.f.F.J.J.F.F.D.A.D.F.H.H.H.H.F.D.D.F.H.H.H.H.F.D.Z.d.a.s.s.a.a.s.$.G n                 ",
"    f l D L s.A.D.G.F.F.D.A.A.D.F.H.H.H.H.F.D.D.F.H.H.H.J.F.D.Z.d.a.a.a.a.a.a.$.J D l f             ",
"    g n L s.A.A.A.A.D.A.d.d.Z.D.F.H.H.J.J.F.D.D.F.J.H.H.H.F.D.f.a.p.a.a.a.a.a.a.a.L n g             ",
"g l n J $.d.f.A.A.A.A.f.s.s.Z.A.A.D.F.H.H.G.d.d.D.F.H.F.D.A.d.$.J J $.p.a.a.a.a.a.$.J l < O         ",
"g l n J $.a.a.s.d.d.s.a.a.d.A.A.A.A.A.A.A.A.d.a.a.d.A.A.A.A.d.$.J D D J $.s.a.a.%.$.J l < O         ",
"a f n L %.s.a.a.a.a.a.a.a.s.d.f.f.Z.A.A.A.A.d.a.a.s.d.Z.f.d.s.$.J D D J L $.$.P J G J z < O         ",
"O + s l D J L $.$.$.&.$.p.a.a.a.a.s.d.d.d.d.s.a.a.a.a.a.a.a.a.$.J D D G G G G H l g g d +           ",
"          d s s s d l n J L L L L $.p.s.a.a.a.a.a.a.s.s.s.p.$.L J n g s s s s s +                   ",
"                % $ $ $ 1 a a a a a d x n n n n n n g f f d a a a 1 $ #                             ",
"                                                                                                    ",
"                                                                                                    "
};
