/* XPM */
static char *T_left[] = {
/* columns rows colors chars-per-pixel */
"50 50 231 2 ",
"   c None",
".  c #0F080F",
"X  c #3C3715",
"o  c #261731",
"O  c #02362D",
"+  c #083431",
"@  c #0B3936",
"#  c #0D3E3A",
"$  c #003937",
"%  c #1D3836",
"&  c #3E352C",
"*  c #353830",
"=  c #20150F",
"-  c #740F10",
";  c #46350C",
":  c #48370D",
">  c #4A380F",
",  c #4C3A11",
"<  c #453814",
"1  c #513F16",
"2  c #442A28",
"3  c #5B3A2D",
"4  c #4A1F17",
"5  c #0F413C",
"6  c #14443E",
"7  c #2B4527",
"8  c #384732",
"9  c #554219",
"0  c #5A461D",
"q  c #56431A",
"w  c #5E4A22",
"e  c #4D4D36",
"r  c #624E24",
"t  c #634A2A",
"y  c #68542A",
"u  c #65473C",
"i  c #735D33",
"p  c #77543A",
"a  c #685B36",
"s  c #7B6539",
"d  c #65623D",
"f  c #604B1F",
"g  c #013D49",
"h  c #013E52",
"j  c #154B45",
"k  c #154B46",
"l  c #17524C",
"z  c #19534D",
"x  c #014354",
"c  c #014C5A",
"v  c #014854",
"b  c #00515D",
"n  c #005857",
"m  c #1A5751",
"M  c #1C5B54",
"N  c #1F5F59",
"B  c #004947",
"V  c #304E4A",
"C  c #1F625B",
"Z  c #20625B",
"A  c #266057",
"S  c #386657",
"D  c #005664",
"F  c #015B66",
"G  c #005F71",
"H  c #00696D",
"J  c #006469",
"K  c #016E73",
"L  c #056A78",
"P  c #017176",
"I  c #00757C",
"U  c #02777E",
"Y  c #187677",
"T  c #266C65",
"R  c #256C64",
"E  c #2A746C",
"W  c #277169",
"Q  c #35766D",
"!  c #2E7B72",
"~  c #327D75",
"^  c #376D67",
"/  c #4D5551",
"(  c #6F5548",
")  c #46674E",
"_  c #596749",
"`  c #746D4B",
"'  c #45756A",
"]  c #557975",
"[  c #4C7772",
"{  c #7B7979",
"}  c #6B696A",
"|  c #8A0810",
" . c #B00919",
".. c #9B162D",
"X. c #AC172B",
"o. c #A12230",
"O. c #8C2828",
"+. c #D81D34",
"@. c #87653E",
"#. c #8A6743",
"$. c #92714D",
"%. c #A17656",
"&. c #9A7963",
"*. c #885E5E",
"=. c #33847B",
"-. c #36887F",
";. c #2F837A",
":. c #48817A",
">. c #BB8859",
",. c #AF8455",
"<. c #8D8C77",
"1. c #BB9775",
"2. c #B2926C",
"3. c #85835D",
"4. c #D09867",
"5. c #D7A473",
"6. c #E5AE6F",
"7. c #017C84",
"8. c #077783",
"9. c #107E8E",
"0. c #73768B",
"q. c #6F00E3",
"w. c #7A0ADF",
"e. c #8E22DF",
"r. c #A54CDD",
"t. c #976DD8",
"y. c #01838B",
"u. c #0A818B",
"i. c #058592",
"p. c #048B96",
"a. c #0D8D9C",
"s. c #098A96",
"d. c #148C9A",
"f. c #07919C",
"g. c #13909F",
"h. c #14828C",
"j. c #368B81",
"k. c #388E84",
"l. c #399086",
"z. c #3D958A",
"x. c #3F988D",
"c. c #3D9894",
"v. c #0C94A2",
"b. c #0C95A5",
"n. c #1392A3",
"m. c #159AAB",
"M. c #1D9AAC",
"N. c #1B96A6",
"B. c #1D9EB2",
"V. c #188EA1",
"C. c #2A9CAA",
"Z. c #2598A8",
"A. c #249EB1",
"S. c #1DA1B2",
"D. c #2AA5BA",
"F. c #2EA9BE",
"G. c #26A2B6",
"H. c #33A8B8",
"J. c #29A1AD",
"K. c #419A8E",
"L. c #479588",
"P. c #439E93",
"I. c #529487",
"U. c #75928F",
"Y. c #45A396",
"T. c #4BAC9A",
"R. c #48A697",
"E. c #4EB29E",
"W. c #50B49F",
"Q. c #56A593",
"!. c #48B2B4",
"~. c #69B49C",
"^. c #33ACC2",
"/. c #39AFC5",
"(. c #3CB1C5",
"). c #3EB2C9",
"_. c #42B3C6",
"`. c #44B6CA",
"'. c #4CBACC",
"]. c #47B8CB",
"[. c #53BECE",
"{. c #54BCC8",
"}. c #52BFD0",
"|. c #5BC2CC",
" X c #55C1D1",
".X c #5CC4D2",
"XX c #65C9D4",
"oX c #6CCCD5",
"OX c #6ACBD4",
"+X c #72CFD6",
"@X c #70CFD8",
"#X c #75D0D7",
"$X c #7AD2D6",
"%X c #72D0D8",
"&X c #78D2D8",
"*X c #6DC8CD",
"=X c #888787",
"-X c #979393",
";X c #B9968B",
":X c #ACA98F",
">X c #B1B0B1",
",X c #A29DA2",
"<X c #CB9E91",
"1X c #CEAC8B",
"2X c #E6BA8E",
"3X c #DCBEA5",
"4X c #EEC299",
"5X c #F2C79B",
"6X c #F5CF98",
"7X c #FCD8B8",
"8X c #ECCFAF",
"9X c #FFE2B8",
"0X c #DFC0A4",
"qX c #B7A6CA",
"wX c #D095CF",
"eX c #98DBCE",
"rX c #84D5D4",
"tX c #8AD7D5",
"yX c #94DAD2",
"uX c #A2DFCD",
"iX c #AEE2CD",
"pX c #C7C6C5",
"aX c #D8D8D8",
"sX c #FFDFC0",
"dX c #E0DEDF",
"fX c #CBE7DD",
"gX c #FFEDCA",
"hX c #FFE7C3",
"jX c #FFF1CA",
"kX c #E6E6E6",
"lX c #F1F2F2",
/* pixels */
"                          K 7.f.v.m.!.&XtXtXtX*XC.u.U K                                             ",
"                          s.v.A._.XX&XeXiXfXfXfXyX|.M.s.U K                                         ",
"                          f.y.P h.C.F._.*XeXeXuXiXyX[.F.m.s.U K                                     ",
"                                U h.C.].XX&X&X&XyXtX+X.X'.F.M.d.7.P                                 ",
"                      7.i.n.V.d.C.]..XOX+X&X&X&X&X&X&X+X.X}.).S.p.U H H                             ",
"                  v.v.B.F.`. X.XXXOX+X&XtXyXyXtX&X&X&X+X.X'.).S.s.U H H H H                         ",
"              n H y.b.F.]. XXX&XtXeXeXeXuXiXiXuXrX&XOX.X'.`.).S.s.U K 7.7.P H H                     ",
"        O B n H P 7.i.v.S.).'.'.XXrXtXrXrXrXrXrXOX.X'.`.).).).S.s.U P d.m.s.7.K F x                 ",
"    O B J U s.M.F.F.G.d.i.f.m.A.F.`.`.`.`.`.`.`.`./.D.M.v.v.v.d.y.d.A.F.F.b.y.P F x h x             ",
"    h c H 7.v.G.).}..X[.'.).G.d.d.v.v.n.n.n.n.n.n.a.d.u.y.V.F._.[.[.[.`.^.G.m.p.7.H b x h           ",
"O $ x c D L i.B.)..X+X+XOXXX[._.).).)._._._._._.).`.[.|.|.XX+X&X&XXX X`.^.G.m.f.y.K D x g +         ",
"v c F L L L L 9.N.D./.'..XOXOX+X+X+X+X+X+X+X+X+X+X+X+X&X&X&X&X&X&XOX X`.^.G.m.f.y.K F b x x         ",
"h D y.m.G.D.G.V.h.i.a.M.F.^.).}. X X X X X X X}.[. X.XXX+X&X+XOXXX|.`.F.B.M.n.i.7.U H F c x         ",
"h D i.S./.).).`.`.H.Z.n.f.a.V.Z.A.A.A.A.A.A.A.D.F.).'.}.}. X[.).G.N.n.n.n.a.i.9.i.s.y.H b x         ",
"g b U a.A.^.).].[.XXXX[.!.C.Z.Z.Z.C.C.C.C.A.n.v.a.n.V.M.M.M.N.g.s.d.a.n.M.D.F.G.m.f.y.K D x         ",
"  B c D G 8.d.A.^.'..XOXOX%X%X@X+X+XOX+X@XOX|.{.!.H.H.J.J.J.H.H.F.)._.).).^.G.m.v.f.y.P D x         ",
"      6 8 e ) E 8.u.d.V.G.H.].[.[.[.[.[.[.}.}..XXXoX@X%X%X@X@X%X+XOX.X'.^.M.p.7.K G D c 6 *         ",
"          y y d _ e e _ ' Y u.n.n.n.n.n.n.n.n.M./.].'.'.'.'.'.'.'.).D.M.f.7.H b z _ e e < :         ",
"            3 t r q 1 r r 9 8 8 & & & & & e $.<.c.n.n.n.g.g.n.n.d.u.K F c c k e a s i r 1 ;         ",
"              4 3 @.>.>.>.>.>.>.p = . = } ,X*.#.1X8X8X:X_ d $.3.` d e a ` ` a y y s i r 1 ;         ",
"              2 u 2.5X7X7X7X7X7X<.o . o 0.>X&.#.5.5X5X1.i i $.$.@.y r i s @.s y r r r r 9 ;         ",
"              2 u ;XsXhXsXsX9XsXwXe.q.w.t.>X1X6.2X4X4X1.i i $.$.s w , 9 y s s y w 0 w w 9 ;         ",
"              2 u 1.7XhXgXgXjXgXwXr.e.r.qXpX8X5X4X4X4X2.i y s s i q > 9 y i i y 9 > 9 w 9 ;         ",
"                3 #.>.4X7XhXgXgXjXjXjXjXgXhX7X7X5X6.6.,.s i s y 9 , : 1 q w r r 9 : 1 w 9 ;         ",
"                  2 3 @.%.2.<X2X5X6X6X6X5X2X1.&.$.$.&.&.#.s i 0 ; ; ; ; , q r r 0 9 9 9 , ;         ",
"                        2 2 3 p #.#.#.#.#.( ( } -X>XpX:X` f 9 , ; ; ; ; , q r r r r 9 ; ; ;         ",
"                          - - o.o.....o.| O.;XdXlXkX>X<.w < & < ; ; ; ; , 0 r r r r 9 : ;           ",
"                           . .| | |  .+. .X.<XdX>X{ / / ^ Q Q 8 ; ; ; ; ; , 9 w r r 9 :             ",
"                          | - * S [ ( | - - *.U.I.L.L.Y.T.T.K.) > ; ; ; ; ; , w r r 9 :             ",
"                          k A j.Y.E.Q.I.I.[ V V Q x.T.W.E.T.K.) > ; ; ; ; ; , w q , :               ",
"                      7 7 k R -.P.T.E.T.P.;.k 5 W k.K.P.P.Y.K.) > ; ; ; ; ; , q 9 >                 ",
"                      7 7 6 A ! -.-.j.=.! R k 5 k Z ! =.=.j.=.S X X X ; ; ; ; ; ;                   ",
"                          7 7 k l m Z R R R R R C m l N E E R Z l # +                               ",
"                              O @ j Z E ! E W R R C l C -.j.! R l # + #                             ",
"                              5 m ! -.k.l.k.[ ] U.U.] [ ] ] ' A 6 % % l m m                         ",
"                            m Z E j.l.j.=.Q / { aXlXdXpX>X>X,X=X} / / ^ ! R m #                     ",
"                          l C ! k.z.K.z.j.Q V / =XpXkXlXkXkXkXpX,X{ / [ j.-.E l 5                   ",
"                      l m Z E z.Y.T.R.P.z.k.-.' / / =X-X=X{ { { } [ :.k.k.l.=.R m @                 ",
"                      l C ! z.T.E.E.E.T.Y.P.c.Q.:X1X0X0X3X1X,.` ^ ~ k.k.k.k.k.j.E l k               ",
"                      R ! z.R.E.W.E.E.E.E.T.Y.Q.2.4.6.5.4.%.u / E =.k.k.k.k.k.k.=.W l @             ",
"                  k m ! z.T.E.E.E.E.E.E.E.E.E.~.:X1.( e e $.2.<.k.j.k.k.k.k.k.k.k.j.E m k           ",
"                  l Z ~ K.T.E.E.E.E.E.E.E.E.E.T.R.P.P.K.P.P.P.K.k.j.k.k.k.k.k.k.k.k.=.R k +         ",
"                  E ! z.Y.E.T.Y.R.E.E.E.W.E.Y.P.P.P.P.P.P.P.P.z.k.k.k.k.k.k.j.=.j.k.=.R l #         ",
"                  =.l.K.Y.T.Y.P.Y.E.W.E.T.T.Y.P.P.P.P.P.P.P.P.K.z.l.k.k.k.k.=.E E ~ ! R Z m k       ",
"              k m ! z.P.P.P.x.l.K.E.W.E.R.P.P.P.P.P.P.P.P.P.P.P.P.z.j.=.=.j.=.E R R R R E R k +     ",
"              k m =.Y.Y.P.z.z.k.x.Y.T.R.Y.P.x.z.P.P.P.P.P.P.P.P.P.z.j.E E =.=.E R R W R R m 5 +     ",
"              l m R =.x.P.z.j.k.z.P.P.P.P.P.z.l.K.P.P.P.P.P.P.P.P.z.j.E E =.=.E R R R m k # @       ",
"                  m m Z R E ~ j.z.P.P.P.P.P.z.l.K.P.P.P.P.P.P.P.P.z.j.E W E W N l j # @ @           ",
"                          m m m C Z R E E ! =.k.k.l.l.l.k.=.E E E m j # # # # @ +                   ",
"                                    l m m m m m m m m l 5 # # @ @                                   "
};
