/* XPM */
static char *T_right[] = {
/* columns rows colors chars-per-pixel */
"50 50 224 2 ",
"   c None",
".  c #3B381C",
"X  c #143D3A",
"o  c #123834",
"O  c #063A35",
"+  c #3C3925",
"@  c #2D3C37",
"#  c #7A070A",
"$  c #6E0F11",
"%  c #473713",
"&  c #483612",
"*  c #483814",
"=  c #4D3D19",
"-  c #463816",
";  c #503F1B",
":  c #4E251F",
">  c #49332E",
",  c #4A3230",
"<  c #71322C",
"1  c #13453E",
"2  c #2E4832",
"3  c #53421D",
"4  c #59441E",
"5  c #484528",
"6  c #5B4924",
"7  c #584624",
"8  c #495034",
"9  c #4F4E36",
"0  c #624E2A",
"q  c #604C27",
"w  c #65522C",
"e  c #69552E",
"r  c #655734",
"t  c #745B38",
"y  c #694939",
"u  c #74613A",
"i  c #7A653C",
"p  c #7A653C",
"a  c #043F48",
"s  c #034446",
"d  c #194642",
"f  c #1A4A47",
"g  c #1E534D",
"h  c #064C5B",
"j  c #084755",
"k  c #04555C",
"l  c #1E5650",
"z  c #364C4A",
"x  c #215A54",
"c  c #235F58",
"v  c #255A54",
"b  c #23514A",
"n  c #25625B",
"m  c #2B635C",
"M  c #3C6A5E",
"N  c #065563",
"B  c #065B66",
"V  c #04696C",
"C  c #06636C",
"Z  c #056B72",
"A  c #096874",
"S  c #047176",
"D  c #05737A",
"F  c #08787F",
"G  c #11747D",
"H  c #2B6C65",
"J  c #296A63",
"K  c #2E736B",
"L  c #21706E",
"P  c #34756C",
"I  c #327B73",
"U  c #3A7871",
"Y  c #32716B",
"T  c #4E4B47",
"R  c #4F5651",
"E  c #71564B",
"W  c #506853",
"Q  c #756A49",
"!  c #587C78",
"~  c #4E736E",
"^  c #787675",
"/  c #6C6A6A",
"(  c #8E0B13",
")  c #AB0513",
"_  c #A8142B",
"`  c #AC2734",
"'  c #9C3E3E",
"]  c #CA1B2E",
"[  c #84683D",
"{  c #835E3F",
"}  c #815B40",
"|  c #866643",
" . c #887249",
".. c #907154",
"X. c #A5724F",
"o. c #8B776C",
"O. c #36847B",
"+. c #39867D",
"@. c #378379",
"#. c #438275",
"$. c #5D947D",
"%. c #BB8C58",
"&. c #8C8978",
"*. c #AF8E6C",
"=. c #989165",
"-. c #C38E62",
";. c #CF9A65",
":. c #CDA37D",
">. c #E7AF71",
",. c #C38D5F",
"<. c #057C84",
"1. c #0B7984",
"2. c #127986",
"3. c #7400E8",
"4. c #8E2DDF",
"5. c #A84FDC",
"6. c #B976D7",
"7. c #05838C",
"8. c #09828C",
"9. c #13848E",
"0. c #0C8692",
"q. c #0A8B96",
"w. c #148C9C",
"e. c #1B8D9C",
"r. c #158794",
"t. c #0C919D",
"y. c #16919D",
"u. c #3B8D83",
"i. c #378C83",
"p. c #3D9186",
"a. c #3F9389",
"s. c #218F9E",
"d. c #1395A3",
"f. c #1B92A3",
"g. c #1B99AB",
"h. c #199AA7",
"j. c #1192A0",
"k. c #2393A3",
"l. c #239AAC",
"z. c #2799AA",
"x. c #349CA7",
"c. c #269EB1",
"v. c #35A2AF",
"b. c #2BA2B5",
"n. c #2DA4B9",
"m. c #25A1B3",
"M. c #33A6BA",
"N. c #33A9BE",
"B. c #3BA9B7",
"V. c #3FB2BF",
"C. c #40968B",
"Z. c #43998E",
"A. c #479689",
"S. c #459D92",
"D. c #479191",
"F. c #478A82",
"G. c #6B8B84",
"H. c #47A195",
"J. c #49A495",
"K. c #4DAC9A",
"L. c #4AA897",
"P. c #4FB19D",
"I. c #50B29D",
"U. c #51A693",
"Y. c #6BAA95",
"T. c #4BB1BB",
"R. c #3BAEC3",
"E. c #36ABC0",
"W. c #3EB0C6",
"Q. c #42B2C5",
"!. c #45B4C9",
"~. c #48B6C9",
"^. c #4DB9CC",
"/. c #4CB7C5",
"(. c #53BDCE",
"). c #59BCC6",
"_. c #54BFD0",
"`. c #5AC1CE",
"'. c #5CC2D0",
"]. c #57C0D0",
"[. c #66C5CA",
"{. c #62C6D2",
"}. c #66C8D3",
"|. c #6CCBD4",
" X c #71CED5",
".X c #76D0D6",
"XX c #7AD2D6",
"oX c #72D0D8",
"OX c #71C4C8",
"+X c #8A8888",
"@X c #829F9C",
"#X c #A79C94",
"$X c #AFAF90",
"%X c #B6B6B4",
"&X c #AAABAC",
"*X c #D3B08F",
"=X c #E9BC8B",
"-X c #EDBF94",
";X c #CEACAC",
":X c #C69F80",
">X c #EEC29A",
",X c #F3C895",
"<X c #F2C18C",
"1X c #EAC9AB",
"2X c #FAD8B9",
"3X c #F8D0AA",
"4X c #FFE4BF",
"5X c #A9A3D2",
"6X c #CDB3C8",
"7X c #9BDCCD",
"8X c #95D9CD",
"9X c #81D4D3",
"0X c #8DD7D4",
"qX c #89D4D0",
"wX c #B1E1CF",
"eX c #A6DFCB",
"rX c #D6D6D6",
"tX c #CECBC7",
"yX c #F8D7C4",
"uX c #CFE8DB",
"iX c #FFE9C6",
"pX c #FFF2CA",
"aX c #E6E6E6",
"sX c #F9F7F7",
/* pixels */
"                                                                                                    ",
"                                            S F 9.x.OX0X0X0X0XOXB.y.1.S                             ",
"                                        S <.q.b.[.7XwXuXuXwX7XqX X/.h.q.                            ",
"                                    D 8.y.m.W.[.8XeX7X8X7XqX(.M.z.k.y.                              ",
"                                <.8.f.b.Q._.{. X0X0XXX.X.X}._.V.k.r.q.                              ",
"                      V V S 7.t.d.z.E.!._.}. XXX.X.X.XXXXX.X}.}.].!.n.g.0.7.0.                      ",
"                  V V V V D 7.d.b.E.^.'.}. X.XXX8X7X7X8XXXXX.X.X X}.'.~.M.l.d.q.q.                  ",
"              V V S <.<.S S 7.d.M.!.!.^.'.}. X9X7XeXeXeX7X7X7X8X9X X{._.!.M.g.0.Z k 1               ",
"        j N C S 7.q.g.f.F S 7.d.M.W.E.E.Q.~.'.}.XX9X9X9X9X9X9X X(.!.!.E.z.w.0.<.F S V k s           ",
"    j j N B C D 7.h.M.E.b.f.r.0.y.d.t.d.g.b.E.W.Q.Q.Q.Q.Q.Q.Q.E.b.z.d.q.0.e.b.E.E.b.d.8.Z k s       ",
"    j N V <.7.t.g.b.E.!.(.`.`.(.~.M.e.9.9.r.w.f.f.f.f.f.f.d.d.q.0.e.M.!.(.`.'.].!.M.g.0.D B j a     ",
"O s j B D 7.q.t.g.n.E.!.(.{. XXXXX X{.'.'.`.^.~.~.~.~.~.~.~.~.!.~.^.'.}.}. X X{.!.n.w.1.C N j s a O ",
"j j k B Z <.q.j.g.n.M.Q.(.}. XXXXXXXXX.X X X X X X X X X X X X X X}.}.{.'.^.E.b.g.0.G A 1.1.A B j j ",
"N B C Z D <.<.8.w.f.l.n.W.(.'.}.}.}.}.}.{.'._.(.(.(.(.(.(.(.(._._.^.E.M.n.z.w.0.0.e.c.M.M.m.d.<.N j ",
"N C D 7.q.q.0.0.r.w.w.w.w.f.z.M.!.(.^.^.(.~.E.n.c.z.z.z.z.z.z.k.k.e.e.w.w.f.z.v.~.^.!.!.!.E.h.<.N j ",
"N C D 7.q.j.g.n.M.M.c.k.f.w.q.q.f.k.f.f.f.f.w.w.y.f.z.v.v.v.v.v.x.x.x.v.T.`.}.}._.^.!.E.b.f.0.Z j a ",
"j N Z <.q.t.j.g.b.M.E.!.!.Q.V.V.B.B.B.B.B.T.T.T.).[.}. X X X X X X XoX X}.{.'.^.E.l.e.2.A N k j s   ",
"+ @ f j N B Z <.q.g.M.!.].{.}. X.X.X X.X X}.}.'.(.^.^.^.^.^.^.^.^.~.Q.M.z.e.9.2.1.L W R 8 8         ",
"* = 5 9 r R g k C F q.f.b.M.Q.~.~.~.~.~.~.!.!.V.z.e.e.e.e.e.e.e.e.0.1.L W Q 9 9 R Q e e             ",
"% = 7 e p p r 8 b j h k C G r.e.e.e.e.e.s.k.k.D.&...E , > > > > 5 5 5 7 w e 4 4 q 0 7               ",
"* = 6 e u u w w u Q Q u r r Q ..=.Q r Q *X2X2X*X..| #X%X        -.-.-.-.-.-.-.X.y :                 ",
"* = 6 0 w 0 0 e p Q p t 0 w u  ... .e | :.>X>X:.X...&X5X        2X2X2X2X2X2X1X:XE >                 ",
"% = 6 6 6 6 6 e p p e 7 = 3 t  . .| e | :.>X>X=X>.*X;X5X4.3.3.4.6X4X4XiXyXiXiX*XE >                 ",
"% = 6 6 = = 6 w t t w 6 = 3 e p p u w [ ;.=X>X>X1X1XtX6X6.5.5.6.yXiXiXpXpXiX3X:XE >                 ",
"% = 6 6 = = 6 0 0 6 7 3 * * ; 0 u p t [ %.>.>.<X3X2XiXiXpXpXpXpXpXpXpX4X3X=X%.| y ,                 ",
"% * 3 3 3 7 6 0 0 6 = % * % % 3 w u p  .o.o...| ..*.:.=X,X,X,X,X=X*X*.o...} y ,                     ",
"* % % = 6 0 0 0 0 6 = % * * * * = 3 w ..%XtX6X#X^ E E t } | | } t y , >                             ",
"    * = 6 0 0 0 0 6 = % * * * - + + = r &.%XrXaXaX;X' ( _ ` _ _ ` ` # $                             ",
"    % = 6 0 0 6 3 * * * * & & 5 M @.@.P R R ^ &XrX;X` ) ] ] ( # ( ( ) )                             ",
"    % = 6 0 0 6 = % * * * & & 8 #.H.K.K.J.A.F.F.G.o.< # # < ~ #.m @ $ #                             ",
"        * ; 6 6 = % % * * & & 8 #.J.K.I.I.L.C.U z z ~ A.U.U.I.K.S.+.c b                             ",
"        % = 7 7 = % % * * & & 8 #.S.S.S.S.C.u.H d d K p.J.K.K.J.C.@.n b 2 2                         ",
"            * * * * * % . . + 2 P O.O.O.@.K x g d g n K I O.+.O.O.K v 2 2 2                         ",
"                        o X g x J H K H x g x n H H H H H J x g f 1 2                               ",
"                      d o X f c K O.u.O.n l n J J K I I I K x d o o                                 ",
"                  x c v 2 @ @ z W ~ ! ! ! G.@X@XG.! F.u.u.u.O.K g 1                                 ",
"              d x H I U R R / +X#X%X%XtXrXaXsXrX^ R Y I +.u.u.O.H n x                               ",
"            f x K u.u.#.W / +X&XrXaXaXaXaXrX%X+XT z Y u.a.C.C.C.u.I c g                             ",
"        o d c K O.u.u.u.+.~ ~ / ^ ^ ^ o.+Xo.R R ~ F.u.p.C.H.K.K.H.u.K n x g                         ",
"        g c I u.u.u.u.u.u.O.K W ..*.*X1X1X1X*X$XY.S.S.H.K.P.I.I.P.J.C.I n g                         ",
"    o d n I +.u.u.u.u.u.u.O.I M T } X.,.;.;.;.*.G.H.K.I.I.I.I.I.I.K.J.a.I H                         ",
"    g n I u.u.u.u.u.u.u.u.u.i.$.*.*.Q T T Q #X$XY.P.P.I.I.I.I.I.I.I.I.L.C.I n g                     ",
"o 1 c K +.u.u.u.u.u.u.u.u.u.u.p.C.S.S.S.S.S.S.H.K.K.P.I.I.I.I.P.K.K.I.K.C.O.J x                     ",
"X f n K +.u.O.O.u.u.u.u.u.u.u.p.C.S.S.S.S.S.S.S.S.J.K.I.I.I.I.K.J.J.K.K.J.C.O.I                     ",
"n n H K I I K K O.u.u.u.u.u.a.C.S.S.S.S.S.S.S.S.S.H.J.K.P.I.I.K.C.C.J.J.H.C.p.O.H                   ",
"H H H H H H H K +.u.O.I +.p.C.S.S.S.S.S.S.S.S.S.S.S.S.H.K.I.I.L.C.u.C.S.S.S.C.+.n g                 ",
"x n H H H H H K +.O.K K O.a.C.S.S.S.S.S.S.S.S.S.C.C.S.H.J.J.J.S.a.u.p.C.S.S.H.u.n g                 ",
"X d g n H H H K +.O.K K O.p.C.S.S.S.S.S.S.S.S.C.p.p.C.S.S.S.S.C.p.u.u.p.C.C.O.K x g                 ",
"    o X X d g c H K H K O.u.C.S.S.S.S.S.S.S.S.C.p.p.C.S.S.S.S.C.p.O.I H m n x x                     ",
"            o o X X X X X g H K K I +.p.u.u.u.u.u.+.I K K H n x x x x l                             "
};
