/* XPM */
static char *wall[] = {
/* columns rows colors chars-per-pixel */
"50 50 124 2 ",
"   c #4C316E",
".  c #51376F",
"X  c #533A6E",
"o  c #4E3472",
"O  c #513675",
"+  c #543A74",
"@  c #583F75",
"#  c #533778",
"$  c #593D7D",
"%  c #5A436E",
"&  c #5F496E",
"*  c #574070",
"=  c #5B4374",
"-  c #5F4973",
";  c #5D437B",
":  c #624C6E",
">  c #66526E",
",  c #69566E",
"<  c #624C74",
"1  c #60477A",
"2  c #634B7A",
"3  c #665173",
"4  c #6A5574",
"5  c #6D5A73",
"6  c #675479",
"7  c #6B557A",
"8  c #6E5A7A",
"9  c #715F76",
"0  c #715E7E",
"q  c #72616E",
"w  c #746474",
"e  c #7C6B74",
"r  c #74637D",
"t  c #7D6D7C",
"y  c #7F717B",
"u  c #827274",
"i  c #877977",
"p  c #84757D",
"a  c #86787C",
"s  c #8B7B7B",
"d  c #8F807E",
"f  c #97897D",
"g  c #988A7E",
"h  c #5A3F80",
"j  c #5D4182",
"k  c #604584",
"l  c #6E5C82",
"z  c #6D5E8A",
"x  c #705E82",
"c  c #746484",
"v  c #7A6B84",
"b  c #78678F",
"n  c #77688E",
"m  c #7A6B8C",
"M  c #7E7087",
"N  c #756791",
"B  c #7B6D93",
"V  c #776A9B",
"C  c #7A6D9D",
"Z  c #7D7092",
"A  c #7D729F",
"S  c #7B6EA0",
"D  c #7D72A2",
"F  c #867884",
"G  c #8B7C83",
"H  c #81738A",
"J  c #867A8D",
"K  c #8A7C89",
"L  c #857A95",
"P  c #8C7F92",
"I  c #817598",
"U  c #857A9A",
"Y  c #887D9D",
"T  c #8177A6",
"R  c #877DA2",
"E  c #887EA2",
"W  c #8F8185",
"Q  c #8D818E",
"!  c #938482",
"~  c #968984",
"^  c #9C8C83",
"/  c #90828A",
"(  c #97888B",
")  c #9C8D8A",
"_  c #9F9086",
"`  c #9D908A",
"'  c #8F8390",
"]  c #92869B",
"[  c #968A9D",
"{  c #A28F84",
"}  c #A19385",
"|  c #A99687",
" . c #A09289",
".. c #A99788",
"X. c #A79888",
"o. c #AB9F8F",
"O. c #B19F8E",
"+. c #AC9C91",
"@. c #A4979D",
"#. c #A79998",
"$. c #B0A18D",
"%. c #AFA190",
"&. c #B4A490",
"*. c #B5A493",
"=. c #BAA895",
"-. c #BFAF9A",
";. c #8D83AA",
":. c #9086A3",
">. c #978CA4",
",. c #8981B3",
"<. c #A395A3",
"1. c #B2A4A0",
"2. c #C2AE99",
"3. c #C3B29C",
"4. c #C8B69E",
"5. c #C7B6A0",
"6. c #C9B7A2",
"7. c #CBBAA3",
"8. c #CFBDA7",
"9. c #D0BFA7",
"0. c #D1BFA8",
"q. c #D3C1A7",
"w. c #D6C1A8",
"e. c #D8C2AA",
/* pixels */
"w.w.w.7.-.X.! L v 5 5 4 3 3 4 7 > , r m t y p F s p p p p t v c 9 4 3 : : 3 4 5 c B L W  .-.4.9.7.7.",
"q.9.5.3.o.~ L B , : - < < 2 2 = = - : > c n n n n n m n N n 4 8 7 = % % % = = < 4 5 w I ] X.=.5.7.w.",
"q.7.-.$.) P Z 4 & % + + ; ; $ ; ; = = = % : < < < < 3 < < < 2 2 2 @ + . . + + + = 2 4 r U ] X.=.5.7.",
"7.3.&. .Q I 9 < = + + o O # # # # $ ; @ = @ = = = = ; ; = = @ + + # O o o o O O + = < 4 w L [ o.-.7.",
"3.&. .' L c 4 - @ + + O O o o o O # $ $ ; $ ; + + + + + + o O o O O O O O O O O O + = - 4 v U ( $.6.",
"=.} s H v 4 < = $ # # O o o o o o O # # j j # O o o O o o o o   o o O + # # # O o O + = < 5 m G } -.",
"o.d e w 4 & = + + $ # O o       o o O # j $ o o o O O + O o o o   o o O O $ # O o     X % : c H ~ &.",
"g u q , & * + O O $ # O o           o # $ O o o o O O o O O O o o o o o O $ # O O       X % 4 m W o.",
"G t 5 < = + + O O # $ # O O o o o o O # O o o o o o O o   O # O O O O O O # $ # + O o o + = 3 C K } ",
"Y m 4 2 = + # # # + # # # # O O O # # # # O O # # O O o o o # $ # # # # # # # # # # O O + = 3 S L ` ",
"U B 3 2 ; # # O o o o o O O # $ # # # # # # # h h # # o o O O # # # # O o o o o O O # $ # ; < S R ` ",
"E C 3 ; $ O o o o o o o O # j # # # O O O # $ # # h j # # O # # # O o o o o o o O # j # # = < C ,.) ",
"E C < = + o o   o o o O # j j j $ # O O O # # O O # # $ $ # # # O o o     o o O # j j j ; = < N R ) ",
"E S < = + o o o o O O # O O O $ j $ # # # $ # O O O O O # # # O O O o o o O O # O O O $ j 1 < n Y ) ",
"Y D 4 = + O O O # # O O o o o O # j j $ # O O o o o o o o O $ # # O O O O # O O o o o o # 2 7 b U ^ ",
"G D > < ; $ $ $ $ O O o o O O O # j j # # O o o o       o O O # $ $ $ $ $ O O o o O O O + 2 7 c U ^ ",
"! I l < ; j j $ $ # # # # # # # # # O # # # O o o       o O # # $ j j h $ # # # # # # # $ = < r U ~ ",
"f H N < = + # # # # # # # # o o o o o o o # # O o o o o O # $ $ # O # # # # # # # # O o O + & c J ^ ",
"^ H n < @ + O O # $ # O O o             o O # # # # # # # $ # O o o O O # # # # O o       X : c G } ",
"{ G m 3 = + O O # # # # # O o o     o o o # # # # $ h j h $ # # o o o O O # # # # O o O X % , m W o.",
"} G m 5 = + O O # # O # # # # O o o O # # O # O O # # # # # # $ # O o O # # O # $ # # + + & c H ! &.",
"} s e 4 < @ + # # O O O # # h j $ # # O O O O O O o o o o o o O # # O # # o O O # $ j j 2 4 m G  .3.",
"o.f e , = ; $ $ o     o o O O $ h # O O O o o o o o o o o     o o # # $       o o O + ; 2 4 e f O.6.",
"&.^ u , = + + $       o o o o O $ j j # o o o o o o O o         o O O $         o o O + 2 0 p f $.6.",
"&.g p 8 < @ + +           o o o o # j # O o     o o o o o o o o O O + #           o O + = x H f &.7.",
"&.f H l = + $ $ O o o o o o o o o + # # # o o     o o       o o o O # $ O o o o o o o + % l H f &.7.",
"&.f H x % = ; $ # O o o o o o o O + O o + # O o o o o         o o O $ $ # O o o o o o + = l H f &.7.",
"O.f v l < ; # + + O O o o o o O # O   o o + # $ # O o       o o # $ # + + O O o o o o + < l M f o.3.",
"..G m 4 2 @ O o o O # + o O # $ o       o o + j $ O O o o o o # h # o o o O # # o O # ; = l v s o.-.",
"^ a c 7 2 +       o O # # # h # O o       o O + # # # O o o O j ; O       o O # # # ; $ = 7 v a } -.",
"^ u 9 7 2 + o     o O O # $ # # # O O o o o O O O # $ # O O $ j j O o     o O o # $ # $ = 3 B J g &.",
"f e 5 < ; # O o o o O o O # # # # $ # O O O # # # # # # # + + O # # O o o o O o O # # $ ; < N H f o.",
"i w > = + O O O O O O O O O o o O # $ $ $ # h O O O # O O o o o o O O O O O O O O O o O + < x M d o.",
"s c : % . o O + # # # O o o o o O O # # j j # O o o O o o o o     o O + # # # # o o o o + = 4 m G } ",
"p n : X . o o O O $ # O o       o o O # j $ O o o O O + O O o o     o o O $ # O o o     O = : n Y ` ",
"p n : X O o o o O $ # O o         o O # $ O o o o O O o O O O o o o o o O $ # O O o       X < n Y ) ",
"H n 3 = + O O O O # $ # O o o o o o O # O o o o O o O o   O # O O O O O O # $ # O o o o + + < m R ) ",
"U n 3 ; + O # # # # # # # O O O O O # # # O O # # O O o o o # $ # O # # # # # # # O O O + = < n L ` ",
"U n 3 1 $ # # O o o o o O O # $ # # # # # # # h h # O o o O O # # # # O o o o o O # # $ @ = 4 m F } ",
"E C 4 2 $ O o o o o o o O # j # # # O O O # $ # # h j # # O # # # O o o o o o o O # j # @ < 4 m G  .",
"K A 4 < + O o   o o o O # j j j $ O O O O # # O O # # $ # # # # O o o   o o o O # j k j 1 < 0 H ! o.",
"W T 5 < = + O o o O O # O # + $ j $ # + # $ # O O O O O # # # O O o o o o O O # # # + ; 2 4 m F ^ =.",
"^ U m 4 < = + + + # + O o o o O # j j $ # + O O O O O O O + $ # # O O O O # O O O + + = 3 r H / | 2.",
"+.] I r 8 4 2 1 ; + + O O O O O # k ; ; @ + + + X X X X + + + # $ $ # $ $ + O O O + = < 5 t s _ &.3.",
"-.@.:.T B c 8 7 2 = @ + + $ # $ ; ; = = < = % % % % % % = = @ $ ; j j ; ; # + + = < 3 5 t K f %.3.5.",
"7.-.#.>.,.T B c 4 3 < < ; = @ = = % : 6 l l l z z z z z 3 < 2 2 = = = ; ; ; = < < 4 5 e H f o.-.7.7.",
"w.7.3.1.<.[ ;.I m n 0 > < < : : : 5 c v v H H I U U U I B n 4 3 : < < < < 3 3 3 , r e s ( o.-.7.w.w.",
"e.9.7.7.2.&. .( K F H m n n n n B M F s f f f f f f f f P H A C C V n n n n m m m H f } O.3.7.7.w.9.",
"9.9.w.w.9.6.2.&.o.^ ! G G F H F G s g } o.&.&.&.&.&.&.o.{ f / K K H H H H F F G ! ^ o.-.3.7.9.9.q.w.",
"7.7.q.9.w.w.0.7.-.&.o.} g ^ ^ ^ } o.&.=.6.7.7.7.7.7.7.3.&.o.} ^ ^ ^ ^ ^ ^ ^ ^ _ } &.3.7.9.w.w.9.w.w."
};
